<svg width="173" height="85" viewBox="0 0 173 85" fill="none" xmlns="http://www.w3.org/2000/svg">
<rect width="167" height="41" transform="translate(0.564941 45.2622) rotate(-15.6349)" fill="#2F5E44"/>
<path d="M23.1793 69.0477L18.6515 52.8693L26.0011 50.8124C27.7576 50.3208 29.401 50.2264 30.9312 50.5292C32.4572 50.8166 33.7658 51.4556 34.8571 52.4461C35.9485 53.4366 36.7248 54.7562 37.1862 56.4049C37.6433 58.0381 37.6647 59.569 37.2503 60.9975C36.8317 62.4107 36.047 63.6438 34.8962 64.6969C33.7412 65.7346 32.2854 66.4992 30.5289 66.9908L23.1793 69.0477ZM26.0631 64.9259L29.4837 63.9686C30.5623 63.6668 31.4384 63.2056 32.1121 62.5851C32.7969 61.9448 33.2493 61.1868 33.4694 60.3111C33.705 59.4311 33.6805 58.4826 33.3959 57.4657C33.1069 56.4333 32.6356 55.6099 31.9818 54.9954C31.339 54.3611 30.561 53.9558 29.6477 53.7794C28.7455 53.5833 27.7551 53.6362 26.6765 53.938L23.2559 54.8953L26.0631 64.9259ZM49.6464 61.6405L48.9673 59.2137L48.5874 58.7468L47.3714 54.4018C47.1558 53.6314 46.7488 53.0973 46.1504 52.7996C45.5674 52.4975 44.7906 52.4823 43.8198 52.754C43.1573 52.9394 42.5327 53.2305 41.9459 53.6273C41.3702 54.0044 40.9086 54.4327 40.5609 54.9121L38.5616 52.7552C39.1059 52.0878 39.819 51.4894 40.701 50.9602C41.583 50.4309 42.517 50.0282 43.5031 49.7523C45.3983 49.2219 46.9948 49.2569 48.2927 49.8573C49.5905 50.4578 50.5046 51.7056 51.035 53.6008L53.0208 60.6961L49.6464 61.6405ZM45.9078 62.8862C44.9371 63.1578 44.0598 63.2289 43.2759 63.0994C42.4877 62.9545 41.8289 62.6487 41.2995 62.1821C40.7702 61.7155 40.4063 61.1278 40.208 60.419C40.001 59.6794 39.9971 58.9827 40.1962 58.3288C40.4108 57.6707 40.8679 57.0775 41.5674 56.5495C42.2627 56.006 43.242 55.5574 44.5055 55.2038L47.8105 54.2789L48.3991 56.3821L45.487 57.1971C44.6395 57.4342 44.0929 57.7368 43.8469 58.1047C43.6164 58.4683 43.5593 58.8581 43.6757 59.2741C43.8051 59.7363 44.0858 60.0565 44.5178 60.2347C44.9609 60.3931 45.4983 60.384 46.13 60.2072C46.7309 60.039 47.2314 59.7494 47.6314 59.3384C48.0271 58.9119 48.2552 58.3912 48.3157 57.7761L49.3361 59.285C49.2984 60.1595 48.9911 60.9018 48.4142 61.5118C47.8372 62.1219 47.0018 62.58 45.9078 62.8862ZM61.582 58.4995C60.5497 58.7884 59.5692 58.8469 58.6404 58.6748C57.7271 58.4984 56.9328 58.0645 56.2574 57.3729C55.5777 56.6659 55.0589 55.673 54.701 54.3941L52.7347 47.3681L56.3401 46.359L58.1577 52.8535C58.4466 53.8858 58.8758 54.5882 59.4452 54.9605C60.0257 55.3131 60.7165 55.3773 61.5178 55.153C62.0725 54.9978 62.5332 54.7443 62.8999 54.3924C63.2623 54.0251 63.4978 53.5605 63.6064 52.9984C63.7106 52.421 63.6571 51.7547 63.4458 50.9997L61.7252 44.852L65.3307 43.8429L68.8106 56.2772L65.39 57.2345L64.4327 53.8139L65.3349 54.6331C65.1603 55.6123 64.7273 56.4397 64.0357 57.115C63.3552 57.7707 62.5373 58.2322 61.582 58.4995ZM72.1508 55.3424L68.6709 42.9081L72.1146 41.9444L73.0978 45.4574L72.3278 44.5763C72.4518 43.5946 72.8596 42.766 73.5512 42.0906C74.2384 41.3998 75.1676 40.8906 76.3386 40.5629L77.27 43.891C77.1116 43.9187 76.9708 43.9498 76.8475 43.9843C76.7199 44.0034 76.5868 44.0323 76.4481 44.0711C75.462 44.3471 74.7406 44.8564 74.2838 45.599C73.8381 46.3218 73.7813 47.2765 74.1133 48.4629L75.7563 54.3333L72.1508 55.3424ZM93.9478 49.4416C92.9155 49.7305 91.935 49.7889 91.0062 49.6168C90.0929 49.4405 89.2985 49.0065 88.6232 48.3149C87.9435 47.6079 87.4247 46.615 87.0668 45.3362L85.1004 38.3101L88.7059 37.3011L90.5235 43.7955C90.8124 44.8279 91.2415 45.5302 91.811 45.9025C92.3915 46.2551 93.0823 46.3193 93.8835 46.0951C94.4382 45.9398 94.8989 45.6863 95.2657 45.3344C95.6281 44.9672 95.8636 44.5025 95.9721 43.9405C96.0764 43.363 96.0228 42.6968 95.8115 41.9418L94.091 35.794L97.6965 34.785L101.176 47.2192L97.7558 48.1765L96.7985 44.7559L97.7006 45.5751C97.5261 46.5544 97.093 47.3817 96.4015 48.0571C95.721 48.7127 94.9031 49.1742 93.9478 49.4416ZM104.517 46.2844L99.7172 29.1353L103.323 28.1263L108.122 45.2754L104.517 46.2844ZM119.095 42.2044L118.416 39.7776L118.036 39.3107L116.82 34.9657C116.604 34.1953 116.197 33.6612 115.599 33.3635C115.016 33.0614 114.239 33.0462 113.269 33.3179C112.606 33.5033 111.981 33.7944 111.395 34.1912C110.819 34.5683 110.357 34.9966 110.01 35.4761L108.01 33.3191C108.555 32.6517 109.268 32.0533 110.15 31.5241C111.032 30.9948 111.966 30.5921 112.952 30.3162C114.847 29.7858 116.444 29.8208 117.741 30.4212C119.039 31.0217 119.953 32.2695 120.484 34.1647L122.47 41.26L119.095 42.2044ZM115.357 43.4501C114.386 43.7217 113.509 43.7928 112.725 43.6633C111.936 43.5184 111.278 43.2126 110.748 42.746C110.219 42.2794 109.855 41.6917 109.657 40.9829C109.45 40.2433 109.446 39.5466 109.645 38.8928C109.86 38.2346 110.317 37.6414 111.016 37.1134C111.711 36.5699 112.691 36.1213 113.954 35.7678L117.259 34.8428L117.848 36.946L114.936 37.761C114.088 37.9981 113.542 38.3007 113.296 38.6686C113.065 39.0322 113.008 39.422 113.124 39.838C113.254 40.3002 113.535 40.6204 113.967 40.7986C114.41 40.957 114.947 40.9479 115.579 40.7711C116.18 40.6029 116.68 40.3133 117.08 39.9023C117.476 39.4758 117.704 38.9551 117.764 38.34L118.785 39.8489C118.747 40.7234 118.44 41.4657 117.863 42.0757C117.286 42.6858 116.451 43.1439 115.357 43.4501ZM129.759 25.6126C130.745 25.3366 131.679 25.2911 132.562 25.4761C133.455 25.6414 134.24 26.0698 134.915 26.7614C135.586 27.4376 136.098 28.4074 136.452 29.6708L138.444 36.7893L134.839 37.7984L133.002 31.2346C132.721 30.233 132.291 29.556 131.711 29.2034C131.145 28.8465 130.462 28.7801 129.661 29.0044C129.091 29.1639 128.609 29.4316 128.216 29.8075C127.834 30.1637 127.581 30.625 127.457 31.1913C127.348 31.7534 127.402 32.4196 127.618 33.19L129.338 39.3378L125.733 40.3468L122.253 27.9126L125.696 26.9488L126.66 30.3925L125.722 29.5336C125.936 28.5765 126.396 27.7581 127.103 27.0784C127.81 26.3987 128.695 25.9101 129.759 25.6126ZM148.957 38.8816C147.786 39.2093 146.612 39.3799 145.436 39.3933C144.28 39.4178 143.26 39.2463 142.376 38.8789L143.085 35.8893C143.729 36.1741 144.487 36.3277 145.357 36.35C146.247 36.3834 147.085 36.2901 147.871 36.0702C149.15 35.7123 149.994 35.1685 150.405 34.4389C150.831 33.7049 150.886 32.7756 150.572 31.6508L150.048 29.7787L149.406 26.5939L148.48 23.4636L147.729 20.7826L151.15 19.8253L154.048 30.1795C154.694 32.4907 154.57 34.3615 153.674 35.7918C152.779 37.2221 151.206 38.252 148.957 38.8816ZM146.927 33.7673C145.772 34.0907 144.655 34.1374 143.577 33.9074C142.51 33.6577 141.567 33.1657 140.746 32.4316C139.937 31.6778 139.365 30.6999 139.028 29.4981C138.688 28.2809 138.67 27.1478 138.974 26.0989C139.29 25.0303 139.841 24.1201 140.627 23.3683C141.429 22.6122 142.408 22.0725 143.564 21.7491C144.611 21.4559 145.596 21.4128 146.518 21.62C147.436 21.8118 148.243 22.292 148.94 23.0606C149.633 23.8138 150.173 24.8838 150.561 26.2705C150.945 27.6418 151.038 28.8368 150.842 29.8555C150.641 30.8589 150.2 31.6883 149.519 32.344C148.839 32.9996 147.975 33.4741 146.927 33.7673ZM146.816 30.6085C147.447 30.4317 147.975 30.151 148.399 29.7665C148.819 29.3666 149.103 28.8967 149.251 28.3568C149.399 27.817 149.389 27.2466 149.221 26.6457C149.048 26.0293 148.761 25.5366 148.358 25.1674C147.952 24.7827 147.467 24.5362 146.905 24.4276C146.339 24.3037 145.74 24.3301 145.108 24.5069C144.476 24.6837 143.951 24.9721 143.531 25.372C143.107 25.7565 142.813 26.2208 142.65 26.765C142.497 27.2895 142.507 27.8598 142.68 28.4762C142.848 29.0771 143.136 29.5698 143.542 29.9545C143.964 30.3348 144.459 30.5869 145.025 30.7108C145.587 30.8194 146.184 30.7853 146.816 30.6085Z" fill="white"/>
</svg>
