<svg width="239" height="64" viewBox="0 0 239 64" fill="none" xmlns="http://www.w3.org/2000/svg">
<rect width="236" height="41" transform="translate(3.87549) rotate(5.42403)" fill="#2F5E44"/>
<path d="M16.164 30.2972L17.752 13.5724L21.6226 13.9399L20.334 27.5109L28.7203 28.3072L28.4209 31.461L16.164 30.2972ZM38.2986 32.3989L38.5368 29.8902L38.35 29.318L38.7765 24.8262C38.8521 24.0297 38.6642 23.3851 38.2128 22.8922C37.7773 22.4008 37.0578 22.1075 36.0543 22.0122C35.3694 21.9472 34.6819 21.9944 33.9917 22.1539C33.319 22.299 32.7342 22.5327 32.2375 22.8552L31.1468 20.1239C31.8946 19.6967 32.7751 19.3945 33.7883 19.2175C34.8016 19.0405 35.8179 19.0004 36.8374 19.0972C38.7966 19.2832 40.2739 19.8896 41.2693 20.9163C42.2647 21.943 42.6694 23.4359 42.4833 25.3951L41.7869 32.7301L38.2986 32.3989ZM34.362 32.218C33.3585 32.1227 32.5143 31.8738 31.8293 31.4712C31.1458 31.0527 30.6409 30.5307 30.3145 29.905C29.9882 29.2794 29.8598 28.6002 29.9294 27.8675C30.002 27.1029 30.2487 26.4513 30.6695 25.9127C31.1062 25.3756 31.7459 24.9863 32.5885 24.7449C33.4326 24.4875 34.5077 24.4208 35.8138 24.5448L39.2305 24.8693L39.024 27.0435L36.0136 26.7576C35.1375 26.6745 34.5186 26.7603 34.1569 27.0153C33.8111 27.2717 33.6178 27.615 33.577 28.0451C33.5316 28.5229 33.6785 28.9226 34.0176 29.2441C34.3742 29.5512 34.879 29.7357 35.532 29.7977C36.1532 29.8567 36.7244 29.7663 37.2454 29.5265C37.7679 29.2707 38.1679 28.8667 38.4453 28.3145L38.8554 30.0892C38.5059 30.8917 37.9524 31.474 37.1948 31.836C36.4372 32.198 35.4929 32.3254 34.362 32.218ZM52.7399 33.963C51.6567 33.8601 50.7317 33.5312 49.9647 32.9762C49.1977 32.4212 48.6294 31.636 48.2598 30.6205C47.9075 29.5906 47.8025 28.327 47.9447 26.8298C48.0884 25.3166 48.4214 24.0946 48.9437 23.1638C49.466 22.233 50.156 21.5672 51.0137 21.1665C51.8715 20.7658 52.8658 20.6191 53.9967 20.7265C55.2072 20.8414 56.2639 21.223 57.1667 21.8713C58.0869 22.5051 58.7788 23.3422 59.2426 24.3827C59.7222 25.4247 59.8985 26.6147 59.7715 27.9527C59.6429 29.3066 59.2451 30.4501 58.5779 31.3833C57.9266 32.3179 57.0894 33.0098 56.0664 33.4591C55.0593 33.91 53.9504 34.0779 52.7399 33.963ZM44.7201 37.6856L46.3807 20.1962L49.9407 20.5342L49.6912 23.1624L49.2565 26.9784L49.1347 30.8L48.4473 38.0395L44.7201 37.6856ZM52.3852 30.8435C53.0064 30.9025 53.5695 30.8113 54.0746 30.5699C54.5956 30.3301 55.0244 29.961 55.361 29.4626C55.7151 28.9497 55.9269 28.327 55.9965 27.5943C56.0675 26.8456 55.9767 26.1941 55.724 25.6398C55.4872 25.0869 55.1355 24.6437 54.669 24.3101C54.2183 23.978 53.6824 23.7825 53.0612 23.7235C52.44 23.6645 51.8689 23.7549 51.3479 23.9948C50.8269 24.2346 50.3981 24.6037 50.0615 25.1021C49.7248 25.6005 49.521 26.224 49.4499 26.9727C49.3803 27.7054 49.4632 28.3561 49.6985 28.9249C49.9353 29.4778 50.287 29.921 50.7535 30.2546C51.2201 30.5882 51.7639 30.7845 52.3852 30.8435ZM67.7547 35.3886C66.3848 35.2586 65.1935 34.8562 64.1808 34.1814C63.1839 33.5082 62.4218 32.6483 61.8944 31.6017C61.3844 30.5408 61.1899 29.3732 61.3109 28.0989C61.4334 26.8087 61.8441 25.6985 62.5432 24.7685C63.2597 23.824 64.17 23.1229 65.2742 22.6652C66.3959 22.1931 67.6416 22.0221 69.0115 22.1522C70.3654 22.2807 71.5487 22.6824 72.5615 23.3571C73.5757 24.0159 74.3386 24.8679 74.8501 25.9129C75.3616 26.9579 75.5554 28.1335 75.4314 29.4396C75.3104 30.7139 74.8996 31.8241 74.199 32.7701C73.5 33.7002 72.5896 34.4012 71.468 34.8733C70.3463 35.3454 69.1086 35.5172 67.7547 35.3886ZM68.045 32.3304C68.6662 32.3894 69.2373 32.2989 69.7583 32.0591C70.2794 31.8193 70.7082 31.4502 71.0448 30.9518C71.3829 30.4374 71.5868 29.8139 71.6563 29.0812C71.7274 28.3326 71.6446 27.6818 71.4078 27.129C71.171 26.5761 70.8193 26.1329 70.3527 25.7993C69.8862 25.4657 69.3423 25.2694 68.7211 25.2104C68.0999 25.1514 67.5288 25.2418 67.0078 25.4817C66.4868 25.7215 66.05 26.0899 65.6974 26.5868C65.3608 27.0852 65.157 27.7087 65.0859 28.4573C65.0163 29.19 65.0992 29.8408 65.3345 30.4096C65.5872 30.9639 65.9468 31.4079 66.4134 31.7415C66.8799 32.0751 67.4238 32.2714 68.045 32.3304ZM77.3125 36.1033L78.533 23.2491L82.093 23.5871L81.7481 27.2188L81.3462 26.1199C81.8147 25.2483 82.493 24.6216 83.381 24.2398C84.2706 23.8421 85.3207 23.7007 86.5312 23.8157L86.2045 27.2562C86.0468 27.2252 85.9042 27.2036 85.7768 27.1915C85.6508 27.1635 85.5162 27.1426 85.3728 27.129C84.3534 27.0322 83.4972 27.2483 82.8041 27.7771C82.1284 28.2915 81.7324 29.162 81.6159 30.3885L81.0397 36.4572L77.3125 36.1033ZM94.5533 37.7403L94.7916 35.2316L94.6048 34.6594L95.0313 30.1676C95.1069 29.3712 94.919 28.7265 94.4676 28.2337C94.0321 27.7423 93.3126 27.449 92.3091 27.3537C91.6242 27.2886 90.9366 27.3359 90.2465 27.4953C89.5738 27.6404 88.989 27.8742 88.4923 28.1967L87.4016 25.4653C88.1494 25.0381 89.0299 24.736 90.0431 24.559C91.0564 24.382 92.0727 24.3419 93.0922 24.4386C95.0513 24.6247 96.5286 25.231 97.5241 26.2577C98.5195 27.2844 98.9242 28.7774 98.7381 30.7365L98.0417 38.0715L94.5533 37.7403ZM90.6168 37.5594C89.6133 37.4641 88.7691 37.2152 88.0841 36.8127C87.4006 36.3942 86.8957 35.8721 86.5693 35.2465C86.243 34.6208 86.1146 33.9416 86.1842 33.2089C86.2568 32.4444 86.5035 31.7928 86.9243 31.2541C87.361 30.717 88.0007 30.3277 88.8433 30.0863C89.6874 29.8289 90.7625 29.7623 92.0686 29.8863L95.4853 30.2107L95.2788 32.3849L92.2684 32.0991C91.3923 32.0159 90.7734 32.1018 90.4117 32.3567C90.0659 32.6132 89.8726 32.9565 89.8318 33.3865C89.7864 33.8644 89.9333 34.264 90.2724 34.5855C90.629 34.8926 91.1338 35.0772 91.7868 35.1392C92.408 35.1982 92.9791 35.1077 93.5002 34.8679C94.0227 34.6122 94.4226 34.2082 94.7001 33.6559L95.1102 35.4306C94.7607 36.2332 94.2072 36.8155 93.4496 37.1775C92.692 37.5395 91.7477 37.6668 90.6168 37.5594ZM110.467 26.0884C111.486 26.1852 112.374 26.4784 113.131 26.9682C113.906 27.4435 114.484 28.1252 114.866 29.0133C115.249 29.8854 115.379 30.9746 115.255 32.2807L114.556 39.6396L110.829 39.2857L111.473 32.5002C111.571 31.4649 111.413 30.6784 110.998 30.1407C110.599 29.6046 109.985 29.2972 109.157 29.2186C108.567 29.1626 108.022 29.2394 107.52 29.4489C107.035 29.6439 106.633 29.9835 106.314 30.4674C106.011 30.953 105.821 31.5939 105.746 32.3903L105.142 38.7458L101.415 38.3918L102.636 25.5377L106.195 25.8757L105.857 29.4357L105.291 28.297C105.834 27.4807 106.558 26.8825 107.462 26.5022C108.366 26.122 109.367 25.984 110.467 26.0884ZM129.007 41.2046C127.908 41.1003 126.861 40.8723 125.866 40.5206C124.888 40.1546 124.123 39.7444 123.572 39.2903L125.068 36.7323C125.623 37.1546 126.287 37.523 127.061 37.8376C127.852 38.1377 128.638 38.3248 129.418 38.3989C130.278 38.4806 130.894 38.4345 131.264 38.2607C131.65 38.0884 131.86 37.8191 131.895 37.4528C131.924 37.1501 131.801 36.9135 131.528 36.743C131.273 36.558 130.918 36.4037 130.463 36.2802C130.009 36.1567 129.507 36.0287 128.957 35.8961C128.423 35.765 127.883 35.6093 127.338 35.429C126.794 35.2327 126.304 34.9772 125.868 34.6626C125.431 34.3479 125.092 33.946 124.849 33.4569C124.622 32.9692 124.543 32.3591 124.613 31.6264C124.69 30.814 124.989 30.1192 125.51 29.5418C126.047 28.966 126.778 28.5452 127.703 28.2795C128.63 27.9978 129.715 27.916 130.957 28.0339C131.833 28.1171 132.716 28.2974 133.606 28.5747C134.495 28.8521 135.226 29.2027 135.796 29.6265L134.302 32.1606C133.715 31.7353 133.11 31.4286 132.485 31.2407C131.877 31.0384 131.279 30.9092 130.689 30.8533C129.861 30.7746 129.245 30.8286 128.842 31.0153C128.438 31.202 128.22 31.4706 128.187 31.821C128.156 32.1396 128.269 32.3914 128.525 32.5764C128.796 32.7629 129.159 32.9259 129.611 33.0653C130.064 33.2047 130.558 33.34 131.092 33.471C131.643 33.5877 132.191 33.7441 132.735 33.9404C133.279 34.1367 133.761 34.3914 134.181 34.7046C134.619 35.0033 134.959 35.3972 135.202 35.8863C135.446 36.3596 135.533 36.9625 135.464 37.6952C135.388 38.4916 135.082 39.1778 134.545 39.7536C134.01 40.3135 133.272 40.7256 132.33 40.9898C131.405 41.2555 130.297 41.3271 129.007 41.2046ZM145.278 42.5567L145.517 40.048L145.33 39.4758L145.756 34.984C145.832 34.1876 145.644 33.5429 145.193 33.05C144.757 32.5587 144.038 32.2653 143.034 32.1701C142.349 32.105 141.662 32.1523 140.971 32.3117C140.299 32.4568 139.714 32.6906 139.217 33.0131L138.127 30.2817C138.874 29.8545 139.755 29.5524 140.768 29.3754C141.781 29.1983 142.798 29.1582 143.817 29.255C145.776 29.4411 147.254 30.0474 148.249 31.0741C149.244 32.1008 149.649 33.5937 149.463 35.5529L148.767 42.8879L145.278 42.5567ZM141.342 42.3758C140.338 42.2805 139.494 42.0316 138.809 41.629C138.126 41.2106 137.621 40.6885 137.294 40.0629C136.968 39.4372 136.84 38.758 136.909 38.0253C136.982 37.2608 137.228 36.6092 137.649 36.0705C138.086 35.5334 138.726 35.1441 139.568 34.9027C140.412 34.6453 141.487 34.5787 142.794 34.7027L146.21 35.0271L146.004 37.2013L142.993 36.9155C142.117 36.8323 141.498 36.9182 141.137 37.1731C140.791 37.4296 140.598 37.7728 140.557 38.2029C140.511 38.6808 140.658 39.0804 140.997 39.4019C141.354 39.709 141.859 39.8936 142.512 39.9556C143.133 40.0145 143.704 39.9241 144.225 39.6843C144.748 39.4285 145.148 39.0245 145.425 38.4723L145.835 40.247C145.486 41.0496 144.932 41.6319 144.175 41.9939C143.417 42.3559 142.473 42.4832 141.342 42.3758ZM169.841 31.726C170.86 31.8228 171.74 32.1153 172.481 32.6035C173.24 33.0774 173.802 33.7576 174.168 34.6441C174.551 35.5162 174.681 36.6054 174.557 37.9115L173.858 45.2704L170.131 44.9165L170.775 38.131C170.874 37.0957 170.731 36.3107 170.348 35.7761C169.965 35.2415 169.383 34.9371 168.603 34.863C168.061 34.8116 167.563 34.8929 167.109 35.1069C166.656 35.305 166.287 35.6396 166.001 36.1107C165.715 36.5818 165.536 37.1996 165.463 37.9642L164.851 44.4151L161.124 44.0612L161.768 37.2758C161.866 36.2404 161.724 35.4554 161.341 34.9208C160.973 34.3877 160.399 34.0841 159.619 34.01C159.077 33.9586 158.579 34.0399 158.125 34.2539C157.672 34.452 157.303 34.7866 157.017 35.2577C156.732 35.7288 156.552 36.3466 156.48 37.1112L155.867 43.5621L152.14 43.2082L153.36 30.354L156.92 30.6921L156.587 34.2043L156.016 33.1134C156.545 32.2797 157.237 31.6784 158.091 31.3095C158.963 30.9262 159.925 30.7845 160.976 30.8843C162.155 30.9962 163.154 31.3964 163.972 32.0849C164.808 32.7589 165.312 33.7228 165.482 34.9765L164.202 34.4934C164.727 33.5307 165.488 32.7993 166.483 32.2992C167.495 31.8006 168.614 31.6095 169.841 31.726ZM184.779 46.5002C183.696 46.3973 182.771 46.0684 182.004 45.5134C181.237 44.9585 180.668 44.1732 180.299 43.1577C179.946 42.1278 179.841 40.8642 179.984 39.367C180.127 37.8538 180.46 36.6318 180.983 35.701C181.505 34.7702 182.195 34.1044 183.053 33.7037C183.91 33.303 184.905 33.1563 186.036 33.2637C187.246 33.3787 188.303 33.7603 189.206 34.4085C190.126 35.0423 190.818 35.8795 191.282 36.92C191.761 37.962 191.937 39.152 191.81 40.4899C191.682 41.8439 191.284 42.9874 190.617 43.9205C189.966 44.8551 189.128 45.5471 188.105 45.9964C187.098 46.4472 185.989 46.6151 184.779 46.5002ZM176.759 50.2228L178.42 32.7334L181.98 33.0715L181.73 35.6996L181.295 39.5156L181.174 43.3372L180.486 50.5767L176.759 50.2228ZM184.424 43.3807C185.045 43.4397 185.608 43.3485 186.114 43.1072C186.635 42.8673 187.063 42.4982 187.4 41.9998C187.754 41.487 187.966 40.8642 188.035 40.1315C188.106 39.3829 188.016 38.7314 187.763 38.177C187.526 37.6241 187.174 37.1809 186.708 36.8473C186.257 36.5152 185.721 36.3197 185.1 36.2607C184.479 36.2017 183.908 36.2921 183.387 36.532C182.866 36.7718 182.437 37.1409 182.1 37.6393C181.764 38.1377 181.56 38.7613 181.489 39.5099C181.419 40.2426 181.502 40.8933 181.737 41.4621C181.974 42.015 182.326 42.4582 182.792 42.7918C183.259 43.1254 183.803 43.3217 184.424 43.3807ZM201.37 47.8827L201.608 45.3739L201.421 44.8017L201.848 40.3099C201.923 39.5135 201.735 38.8689 201.284 38.376C200.849 37.8846 200.129 37.5913 199.126 37.496C198.441 37.431 197.753 37.4782 197.063 37.6377C196.39 37.7827 195.805 38.0165 195.309 38.339L194.218 35.6077C194.966 35.1804 195.846 34.8783 196.86 34.7013C197.873 34.5243 198.889 34.4842 199.909 34.581C201.868 34.767 203.345 35.3734 204.341 36.4C205.336 37.4267 205.741 38.9197 205.555 40.8789L204.858 48.2139L201.37 47.8827ZM197.433 47.7017C196.43 47.6065 195.586 47.3575 194.901 46.955C194.217 46.5365 193.712 46.0144 193.386 45.3888C193.059 44.7631 192.931 44.084 193.001 43.3513C193.073 42.5867 193.32 41.9351 193.741 41.3965C194.177 40.8593 194.817 40.4701 195.66 40.2286C196.504 39.9713 197.579 39.9046 198.885 40.0286L202.302 40.353L202.095 42.5272L199.085 42.2414C198.209 42.1582 197.59 42.2441 197.228 42.4991C196.882 42.7555 196.689 43.0988 196.648 43.5288C196.603 44.0067 196.75 44.4064 197.089 44.7279C197.445 45.0349 197.95 45.2195 198.603 45.2815C199.224 45.3405 199.796 45.2501 200.317 45.0102C200.839 44.7545 201.239 44.3505 201.517 43.7982L201.927 45.5729C201.577 46.3755 201.024 46.9578 200.266 47.3198C199.508 47.6818 198.564 47.8091 197.433 47.7017ZM217.283 36.2307C218.302 36.3275 219.191 36.6208 219.948 37.1105C220.722 37.5859 221.3 38.2676 221.682 39.1556C222.065 40.0278 222.195 41.1169 222.071 42.423L221.372 49.7819L217.645 49.428L218.289 42.6425C218.388 41.6072 218.229 40.8207 217.814 40.2831C217.415 39.7469 216.801 39.4395 215.973 39.3609C215.384 39.3049 214.838 39.3817 214.336 39.5912C213.852 39.7862 213.45 40.1258 213.13 40.6098C212.827 41.0953 212.638 41.7362 212.562 42.5327L211.959 48.8881L208.231 48.5342L209.915 30.8059L213.642 31.1598L212.841 39.5939L212.107 38.4393C212.651 37.623 213.374 37.0248 214.278 36.6445C215.182 36.2643 216.184 36.1263 217.283 36.2307Z" fill="white"/>
</svg>
