<svg width="212" height="47" viewBox="0 0 212 47" fill="none" xmlns="http://www.w3.org/2000/svg">
<rect width="210" height="41" transform="translate(0.380371 5.89453) rotate(-1.58366)" fill="#2F5E44"/>
<path d="M16.4451 34.4617L15.9808 17.6681L19.8674 17.5607L20.2441 31.1875L28.6649 30.9546L28.7524 34.1214L16.4451 34.4617ZM38.6708 33.8472L38.6011 31.3282L38.346 30.783L38.2213 26.2728C38.1992 25.4731 37.934 24.8562 37.4258 24.422C36.9336 23.9875 36.1837 23.7841 35.1761 23.812C34.4884 23.831 33.8117 23.9617 33.1462 24.2042C32.4962 24.4303 31.9443 24.7336 31.4907 25.1143L30.0749 22.5365C30.7649 22.0212 31.602 21.6139 32.5861 21.3146C33.5702 21.0153 34.574 20.8515 35.5977 20.8232C37.5649 20.7688 39.1051 21.1904 40.2184 22.088C41.3316 22.9855 41.9154 24.418 41.9698 26.3852L42.1734 33.7504L38.6708 33.8472ZM34.7416 34.1479C33.734 34.1758 32.8656 34.0317 32.1366 33.7158C31.4072 33.3838 30.8423 32.9272 30.4421 32.3461C30.0419 31.7649 29.8316 31.1065 29.8113 30.3707C29.7901 29.603 29.9554 28.9262 30.3074 28.3403C30.6753 27.7539 31.2627 27.2895 32.0695 26.947C32.8759 26.5886 33.9349 26.3913 35.2464 26.355L38.6771 26.2602L38.7374 28.4433L35.7146 28.5269C34.8349 28.5512 34.2311 28.712 33.9032 29.0091C33.5913 29.3059 33.4413 29.6702 33.4533 30.102C33.4665 30.5818 33.6611 30.9606 34.0369 31.2383C34.4283 31.4996 34.9518 31.6212 35.6076 31.603C36.2313 31.5858 36.7871 31.4264 37.275 31.1248C37.7624 30.8072 38.1101 30.3574 38.3181 29.7754L38.9416 31.4868C38.6927 32.326 38.2144 32.9715 37.5066 33.4232C36.7988 33.875 35.8771 34.1165 34.7416 34.1479ZM47.0917 38.4643C46.42 38.4828 45.7533 38.3972 45.0918 38.2074C44.4303 38.0176 43.8866 37.7446 43.4606 37.3882L44.7544 34.6874C45.0494 34.9354 45.3828 35.1262 45.7546 35.26C46.1425 35.3933 46.5203 35.4549 46.8882 35.4447C47.416 35.4301 47.8283 35.2907 48.1251 35.0264C48.4383 34.7776 48.7149 34.3618 48.9549 33.779L49.5829 32.177L49.8595 31.7612L54.182 20.5015L57.7806 20.402L52.3296 34.2619C51.9425 35.313 51.4852 36.142 50.9578 36.7488C50.4463 37.3551 49.8661 37.7873 49.2169 38.0454C48.5838 38.303 47.8754 38.4426 47.0917 38.4643ZM49.1788 34.0609L43.0502 20.8092L46.9128 20.7024L51.6735 31.3749L49.1788 34.0609ZM67.1599 33.0596L67.0902 30.5405L66.8351 29.9954L66.7104 25.4851C66.6883 24.6854 66.4231 24.0685 65.9149 23.6344C65.4227 23.1998 64.6728 22.9965 63.6652 23.0243C62.9775 23.0433 62.3008 23.1741 61.6353 23.4166C60.9853 23.6426 60.4334 23.946 59.9798 24.3267L58.564 21.7488C59.254 21.2336 60.0911 20.8263 61.0752 20.527C62.0593 20.2276 63.0632 20.0638 64.0868 20.0355C66.054 19.9812 67.5943 20.4027 68.7075 21.3003C69.8207 22.1979 70.4045 23.6303 70.4589 25.5976L70.6625 32.9627L67.1599 33.0596ZM63.2307 33.3603C62.2231 33.3881 61.3548 33.2441 60.6257 32.9281C59.8963 32.5961 59.3315 32.1396 58.9312 31.5584C58.531 30.9773 58.3208 30.3188 58.3004 29.5831C58.2792 28.8154 58.4445 28.1386 58.7965 27.5526C59.1644 26.9662 59.7518 26.5018 60.5587 26.1594C61.3651 25.801 62.424 25.6036 63.7355 25.5674L67.1662 25.4725L67.2266 27.6557L64.2037 27.7393C63.324 27.7636 62.7203 27.9243 62.3923 28.2215C62.0804 28.5182 61.9304 28.8825 61.9424 29.3143C61.9556 29.7942 62.1502 30.1729 62.526 30.4507C62.9174 30.7119 63.4409 30.8335 64.0967 30.8154C64.7204 30.7981 65.2763 30.6387 65.7641 30.3371C66.2515 30.0195 66.5992 29.5697 66.8072 28.9878L67.4307 30.6992C67.1818 31.5384 66.7035 32.1839 65.9957 32.6356C65.2879 33.0873 64.3663 33.3289 63.2307 33.3603ZM81.5326 19.5532C82.5562 19.5249 83.4736 19.7076 84.2848 20.1014C85.1115 20.4787 85.7685 21.0847 86.2558 21.9196C86.7426 22.7384 87.0042 23.8036 87.0404 25.1151L87.2447 32.5043L83.5021 32.6078L83.3138 25.7944C83.285 24.7548 83.0319 23.9935 82.5544 23.5105C82.0928 23.0271 81.4462 22.7968 80.6145 22.8198C80.0228 22.8362 79.4905 22.979 79.0178 23.2481C78.5606 23.5009 78.2031 23.8869 77.9453 24.4062C77.7036 24.9251 77.5938 25.5844 77.6159 26.3841L77.7923 32.7656L74.0497 32.8691L73.6929 19.962L77.2675 19.8632L77.3664 23.4378L76.6648 22.3768C77.1047 21.5003 77.7501 20.8182 78.601 20.3305C79.4518 19.8428 80.429 19.5837 81.5326 19.5532ZM98.5541 32.1916L98.4845 29.6726L98.2293 29.1274L98.1046 24.6172C98.0825 23.8175 97.8174 23.2006 97.3092 22.7664C96.817 22.3319 96.0671 22.1285 95.0595 22.1564C94.3717 22.1754 93.6951 22.3061 93.0295 22.5486C92.3795 22.7747 91.8277 23.078 91.374 23.4587L89.9583 20.8809C90.6483 20.3656 91.4853 19.9583 92.4694 19.659C93.4536 19.3597 94.4574 19.1959 95.481 19.1676C97.4483 19.1132 98.9885 19.5348 100.102 20.4324C101.215 21.3299 101.799 22.7624 101.853 24.7296L102.057 32.0948L98.5541 32.1916ZM94.6249 32.4923C93.6173 32.5202 92.749 32.3761 92.02 32.0602C91.2905 31.7282 90.7257 31.2716 90.3255 30.6905C89.9253 30.1093 89.715 29.4509 89.6947 28.7151C89.6734 27.9474 89.8388 27.2706 90.1907 26.6847C90.5587 26.0983 91.1461 25.6339 91.9529 25.2914C92.7593 24.933 93.8183 24.7357 95.1298 24.6994L98.5605 24.6046L98.6208 26.7877L95.598 26.8713C94.7183 26.8956 94.1145 27.0564 93.7866 27.3535C93.4747 27.6503 93.3247 28.0146 93.3366 28.4464C93.3499 28.9262 93.5444 29.305 93.9203 29.5827C94.3116 29.844 94.8352 29.9656 95.4909 29.9474C96.1147 29.9302 96.6705 29.7708 97.1584 29.4692C97.6458 29.1516 97.9935 28.7018 98.2015 28.1198L98.825 29.8312C98.5761 30.6704 98.0978 31.3159 97.39 31.7676C96.6822 32.2194 95.7605 32.4609 94.6249 32.4923ZM112.927 18.6853C113.95 18.657 114.868 18.8397 115.679 19.2334C116.506 19.6107 117.163 20.2168 117.65 21.0516C118.137 21.8705 118.398 22.9357 118.435 24.2472L118.639 31.6363L114.896 31.7398L114.708 24.9264C114.679 23.8868 114.426 23.1255 113.949 22.6425C113.487 22.1591 112.84 21.9289 112.009 21.9519C111.417 21.9682 110.885 22.111 110.412 22.3802C109.955 22.6329 109.597 23.0189 109.34 23.5382C109.098 24.0571 108.988 24.7164 109.01 25.5161L109.187 31.8977L105.444 32.0011L105.087 19.0941L108.662 18.9952L108.761 22.5699L108.059 21.5089C108.499 20.6324 109.144 19.9503 109.995 19.4626C110.846 18.9749 111.823 18.7158 112.927 18.6853ZM135.069 31.3742C133.677 31.4127 132.43 31.167 131.327 30.6373C130.223 30.0916 129.346 29.3236 128.694 28.3332C128.059 27.3424 127.723 26.2072 127.688 24.9277C127.652 23.6322 127.924 22.4802 128.504 21.4718C129.1 20.4469 129.934 19.6396 131.006 19.0497C132.078 18.4439 133.31 18.1217 134.701 18.0833C136.061 18.0457 137.252 18.3008 138.276 18.8488C139.299 19.3807 140.065 20.1678 140.574 21.2102L137.714 22.8498C137.361 22.2513 136.925 21.8152 136.405 21.5415C135.902 21.2673 135.354 21.1384 134.762 21.1547C134.122 21.1724 133.551 21.3323 133.047 21.6343C132.543 21.9364 132.146 22.3555 131.857 22.8917C131.584 23.4275 131.457 24.0712 131.478 24.8229C131.499 25.5746 131.661 26.2104 131.963 26.7302C132.282 27.2496 132.701 27.6462 133.22 27.9199C133.74 28.1937 134.32 28.3217 134.96 28.304C135.551 28.2877 136.092 28.1367 136.58 27.8511C137.084 27.549 137.495 27.0815 137.814 26.4484L140.76 27.9516C140.309 29.0044 139.588 29.8327 138.596 30.4363C137.604 31.024 136.428 31.3366 135.069 31.3742ZM149.247 30.9822C147.775 31.0229 146.472 30.7708 145.336 30.226C144.217 29.6807 143.34 28.9207 142.704 27.9458C142.069 26.955 141.733 25.8199 141.698 24.5404C141.662 23.2449 141.926 22.0931 142.491 21.0851C143.071 20.0607 143.873 19.2542 144.897 18.6657C145.92 18.0612 147.088 17.7408 148.4 17.7045C149.663 17.6696 150.806 17.9101 151.829 18.426C152.867 18.9255 153.696 19.6709 154.316 20.6622C154.935 21.6374 155.264 22.8208 155.302 24.2123C155.306 24.3562 155.303 24.5244 155.292 24.7167C155.281 24.8931 155.269 25.0615 155.258 25.2219L144.774 25.5117L144.714 23.3286L153.23 23.0931L151.809 23.7806C151.79 23.1089 151.638 22.5289 151.353 22.0406C151.067 21.5523 150.68 21.1788 150.193 20.9202C149.705 20.6456 149.142 20.5171 148.502 20.5348C147.862 20.5525 147.298 20.7121 146.81 21.0137C146.338 21.2989 145.973 21.7011 145.715 22.2204C145.457 22.7238 145.338 23.3193 145.357 24.007L145.372 24.5828C145.392 25.2866 145.561 25.9061 145.88 26.4415C146.215 26.9605 146.666 27.3561 147.233 27.6286C147.817 27.8845 148.492 28.0019 149.26 27.9807C149.948 27.9617 150.545 27.8411 151.051 27.6191C151.573 27.3965 152.044 27.0714 152.464 26.6436L154.515 28.7477C153.942 29.4358 153.213 29.9762 152.327 30.3688C151.441 30.7455 150.414 30.9499 149.247 30.9822ZM165.605 30.5299C164.518 30.56 163.559 30.3464 162.73 29.8891C161.901 29.4319 161.242 28.7218 160.751 27.759C160.276 26.7798 160.017 25.5385 159.976 24.035C159.934 22.5156 160.115 21.2621 160.52 20.2746C160.925 19.287 161.528 18.542 162.331 18.0397C163.133 17.5373 164.102 17.2704 165.238 17.239C166.453 17.2054 167.549 17.4552 168.524 17.9885C169.514 18.5053 170.303 19.2518 170.89 20.2279C171.494 21.2036 171.814 22.3632 171.851 23.7067C171.889 25.0662 171.633 26.2497 171.085 27.2572C170.552 28.2643 169.806 29.0533 168.845 29.624C167.901 30.1944 166.821 30.4963 165.605 30.5299ZM158.099 35.2032L157.614 17.6419L161.189 17.543L161.262 20.182L161.296 24.0225L161.641 27.8305L161.842 35.0997L158.099 35.2032ZM164.873 27.477C165.496 27.4598 166.044 27.3006 166.516 26.9994C167.004 26.6978 167.384 26.2791 167.658 25.7434C167.947 25.1912 168.081 24.5472 168.06 23.8115C168.04 23.0598 167.87 22.4242 167.552 21.9048C167.249 21.385 166.846 20.988 166.342 20.7138C165.854 20.4392 165.299 20.3105 164.675 20.3277C164.051 20.345 163.495 20.5044 163.007 20.806C162.52 21.1076 162.139 21.5263 161.866 22.062C161.592 22.5978 161.466 23.2415 161.487 23.9933C161.507 24.729 161.669 25.3647 161.972 25.9006C162.274 26.4204 162.677 26.8174 163.181 27.0916C163.685 27.3658 164.249 27.4943 164.873 27.477ZM182.241 29.8779L182.171 27.3589L181.916 26.8137L181.791 22.3035C181.769 21.5038 181.504 20.8869 180.996 20.4527C180.504 20.0182 179.754 19.8148 178.746 19.8427C178.058 19.8617 177.382 19.9924 176.716 20.2349C176.066 20.461 175.514 20.7643 175.061 21.145L173.645 18.5672C174.335 18.0519 175.172 17.6446 176.156 17.3453C177.14 17.046 178.144 16.8822 179.168 16.8539C181.135 16.7995 182.675 17.2211 183.789 18.1187C184.902 19.0162 185.486 20.4487 185.54 22.4159L185.744 29.7811L182.241 29.8779ZM178.312 30.1786C177.304 30.2065 176.436 30.0624 175.707 29.7465C174.977 29.4145 174.412 28.9579 174.012 28.3768C173.612 27.7956 173.402 27.1372 173.381 26.4014C173.36 25.6337 173.526 24.9569 173.878 24.371C174.245 23.7846 174.833 23.3202 175.64 22.9777C176.446 22.6193 177.505 22.422 178.817 22.3857L182.247 22.2909L182.308 24.474L179.285 24.5576C178.405 24.5819 177.801 24.7427 177.473 25.0398C177.161 25.3366 177.011 25.7009 177.023 26.1327C177.037 26.6125 177.231 26.9913 177.607 27.269C177.998 27.5303 178.522 27.6519 179.178 27.6337C179.801 27.6165 180.357 27.4571 180.845 27.1555C181.333 26.8379 181.68 26.3881 181.888 25.8061L182.512 27.5175C182.263 28.3567 181.785 29.0022 181.077 29.4539C180.369 29.9057 179.447 30.1472 178.312 30.1786ZM194.414 29.7335C192.895 29.7755 191.7 29.4243 190.832 28.6801C189.962 27.9198 189.506 26.772 189.464 25.2365L189.151 13.9129L192.893 13.8094L193.205 25.0851C193.22 25.6289 193.376 26.0487 193.672 26.3447C193.968 26.6246 194.364 26.7577 194.86 26.744C195.451 26.7276 195.951 26.5538 196.358 26.2224L197.438 28.8335C197.062 29.116 196.604 29.3368 196.064 29.4958C195.54 29.6383 194.99 29.7175 194.414 29.7335ZM187.326 19.9896L187.246 17.1107L196.195 16.8633L196.275 19.7422L187.326 19.9896Z" fill="white"/>
</svg>
