<svg width="319" height="121" viewBox="0 0 319 121" fill="none" xmlns="http://www.w3.org/2000/svg">
<rect width="312" height="98" transform="translate(0 22.2822) rotate(-4.09536)" fill="#2F5E44"/>
<path d="M22.4643 98.8735L18.4649 43.0165L29.1576 42.2509L55.7591 79.9675L50.0936 80.3731L70.6513 39.28L81.2642 38.5201L85.4231 94.3657L73.2942 95.2341L70.5462 57.9753L72.7805 57.8153L56.3536 90.5119L50.5286 90.929L29.212 60.9348L31.9251 60.7405L34.5932 98.0051L22.4643 98.8735ZM115.957 92.8211C112.393 93.0763 109.151 92.6133 106.233 91.4321C103.368 90.247 101.063 88.3 99.3182 85.591C97.5698 82.8288 96.5375 79.24 96.2214 74.8246L94.4845 50.5667L106.933 49.6755L108.538 72.0981C108.793 75.6623 109.727 78.2422 111.338 79.8379C112.999 81.3765 115.212 82.0468 117.979 81.8488C119.894 81.7116 121.567 81.1908 123 80.2862C124.428 79.3284 125.507 77.9678 126.237 76.2046C126.962 74.3881 127.231 72.1766 127.045 69.5699L125.525 48.3443L137.973 47.453L141.047 90.3831L129.237 91.2287L128.392 79.4189L130.792 82.6958C129.569 85.7777 127.603 88.191 124.894 89.9355C122.234 91.6231 119.255 92.585 115.957 92.8211ZM171.058 88.876C167.015 89.1654 163.306 88.522 159.932 86.9456C156.553 85.3161 153.788 82.9207 151.637 79.7596C149.539 76.5947 148.33 72.778 148.01 68.3094C147.686 63.7877 148.337 59.811 149.963 56.3795C151.642 52.9441 154.039 50.206 157.155 48.1649C160.27 46.1239 163.85 44.9586 167.893 44.6691C171.51 44.4101 174.732 44.9814 177.56 46.3831C180.387 47.7848 182.662 50.0548 184.384 53.1932C186.105 56.3315 187.147 60.4276 187.509 65.4813C187.867 70.4819 187.446 74.6827 186.246 78.0837C185.042 81.4316 183.141 84.0006 180.542 85.7908C177.996 87.5771 174.835 88.6055 171.058 88.876ZM172.481 78.5078C174.503 78.3631 176.304 77.7529 177.884 76.6773C179.465 75.6017 180.671 74.1518 181.503 72.3278C182.384 70.4467 182.737 68.2826 182.562 65.8356C182.383 63.3353 181.725 61.2436 180.589 59.5605C179.505 57.8735 178.105 56.6103 176.387 55.7708C174.67 54.9313 172.8 54.584 170.778 54.7287C168.704 54.8773 166.876 55.4894 165.296 56.565C163.715 57.6406 162.482 59.0923 161.597 60.9202C160.765 62.7443 160.439 64.9065 160.618 67.4067C160.793 69.8538 161.424 71.9474 162.511 73.6875C163.648 75.3707 165.075 76.632 166.792 77.4715C168.51 78.3109 170.406 78.6564 172.481 78.5078ZM184.418 87.2778L183.789 78.5002L183.115 65.7158L181.408 53.0854L179.62 28.1093L192.068 27.218L196.307 86.4265L184.418 87.2778ZM234.161 83.7162L233.561 75.3376L232.632 73.5594L231.558 58.5578C231.367 55.898 230.394 53.8823 228.638 52.5109C226.936 51.1356 224.409 50.568 221.057 50.8079C218.77 50.9717 216.536 51.506 214.355 52.4107C212.223 53.2585 210.43 54.3493 208.975 55.6833L203.883 47.3055C206.106 45.4888 208.834 44.0102 212.068 42.8697C215.301 41.7292 218.62 41.0371 222.025 40.7933C228.568 40.3248 233.759 41.5038 237.597 44.3302C241.435 47.1566 243.589 51.8415 244.057 58.3847L245.811 82.882L234.161 83.7162ZM221.12 85.2915C217.769 85.5315 214.856 85.1786 212.382 84.2328C209.905 83.2339 207.957 81.796 206.539 79.9191C205.122 78.0422 204.325 75.8803 204.15 73.4332C203.967 70.8797 204.419 68.6016 205.505 66.5989C206.645 64.5924 208.533 62.9601 211.17 61.7019C213.803 60.3905 217.301 59.5786 221.663 59.2663L233.074 58.4493L233.594 65.7107L223.539 66.4306C220.614 66.6401 218.626 67.2636 217.578 68.3011C216.582 69.3348 216.136 70.5699 216.239 72.0062C216.353 73.6021 217.056 74.835 218.349 75.705C219.69 76.5179 221.451 76.8463 223.632 76.6901C225.707 76.5416 227.535 75.9295 229.115 74.8539C230.692 73.7251 231.784 72.1764 232.392 70.208L234.718 75.8162C234.012 78.6472 232.513 80.8666 230.222 82.4743C227.931 84.082 224.897 85.0211 221.12 85.2915ZM280.051 36.6386C283.456 36.3949 286.538 36.8693 289.296 38.062C292.105 39.1977 294.381 41.12 296.126 43.829C297.866 46.4848 298.893 49.9938 299.205 54.3559L300.965 78.933L288.517 79.8243L286.894 57.1623C286.647 53.7045 285.693 51.2063 284.032 49.6676C282.424 48.1252 280.237 47.453 277.471 47.651C275.503 47.7919 273.751 48.3451 272.216 49.3105C270.731 50.219 269.597 51.5567 268.814 53.3238C268.085 55.087 267.815 57.2986 268.006 59.9584L269.526 81.1841L257.077 82.0754L252.838 22.8669L265.286 21.9757L267.303 50.1435L264.253 46.7527C265.59 43.7696 267.64 41.4038 270.402 39.6555C273.164 37.9071 276.381 36.9015 280.051 36.6386Z" fill="white"/>
</svg>
