<svg width="94" height="94" viewBox="0 0 94 94" fill="none" xmlns="http://www.w3.org/2000/svg">
<rect width="94" height="94" rx="47" fill="white"/>
<g clip-path="url(#clip0_1261_749)">
<path d="M43.625 56.0787L36.659 49.115C36.0262 48.4819 35.1677 48.126 34.2726 48.1258C33.3774 48.1256 32.5188 48.481 31.8856 49.1139C31.2525 49.7467 30.8967 50.6051 30.8965 51.5003C30.8963 52.3955 31.2517 53.2541 31.8845 53.8872L44.6128 66.6155C44.9262 66.9291 45.2983 67.1779 45.708 67.3477C46.1176 67.5174 46.5566 67.6048 47 67.6048C47.4434 67.6048 47.8825 67.5174 48.2921 67.3477C48.7017 67.1779 49.0738 66.9291 49.3873 66.6155L62.1155 53.8895C62.429 53.576 62.6777 53.2038 62.8474 52.7942C63.017 52.3846 63.1043 51.9456 63.1043 51.5022C63.1043 51.0589 63.017 50.6199 62.8474 50.2103C62.6777 49.8007 62.429 49.4285 62.1155 49.115C61.802 48.8015 61.4298 48.5528 61.0202 48.3832C60.6106 48.2135 60.1716 48.1262 59.7283 48.1262C59.2849 48.1262 58.8459 48.2135 58.4363 48.3832C58.0267 48.5528 57.6545 48.8015 57.341 49.115L50.375 56.0787V30.125C50.375 29.2299 50.0194 28.3714 49.3865 27.7385C48.7536 27.1056 47.8951 26.75 47 26.75C46.1049 26.75 45.2465 27.1056 44.6135 27.7385C43.9806 28.3714 43.625 29.2299 43.625 30.125V56.0787Z" fill="#A4B465"/>
</g>
<defs>
<clipPath id="clip0_1261_749">
<rect width="54" height="54" fill="white" transform="translate(20 20)"/>
</clipPath>
</defs>
</svg>
