<svg width="111" height="29" viewBox="0 0 111 29" fill="none" xmlns="http://www.w3.org/2000/svg">
<path d="M20.0405 6.64C19.1605 6.53333 17.6138 6.38666 15.4005 6.2C14.1738 6.14666 13.1871 6.11999 12.4405 6.11999C11.4805 6.11999 10.5738 6.14666 9.72047 6.2V-5.24521e-06H10.7205C12.9071 -5.24521e-06 15.1738 0.146661 17.5205 0.439994C18.2671 0.546661 19.1071 0.693328 20.0405 0.879995V6.64ZM13.4405 19.72C13.4405 19.16 13.4005 18.76 13.3205 18.52C13.2405 18.2533 13.1071 18.08 12.9205 18C12.7338 17.8933 12.4138 17.8133 11.9605 17.76L7.04047 17.16C4.1338 16.84 2.1738 15.8933 1.16047 14.32C0.707135 13.6533 0.400469 12.84 0.240469 11.88C0.0804689 10.92 0.00046885 9.74666 0.00046885 8.36C0.00046885 5.39999 0.760469 3.26666 2.28047 1.96C3.50714 0.893329 5.42714 0.266662 8.04047 0.0799961V8.12C8.04047 8.46666 8.0538 8.76 8.08047 9C8.10714 9.24 8.16047 9.42666 8.24047 9.56C8.32047 9.72 8.4538 9.84 8.64047 9.92C8.82714 9.97333 9.10714 10.0133 9.48047 10.04L15.0005 10.72C16.1471 10.88 17.0805 11.08 17.8005 11.32C18.5205 11.56 19.1338 11.9333 19.6405 12.44C20.8405 13.6933 21.4405 15.92 21.4405 19.12C21.4405 22.5067 20.6938 24.88 19.2005 26.24C18.5338 26.8533 17.7205 27.3067 16.7605 27.6C15.8271 27.8667 14.7205 28.04 13.4405 28.12V19.72ZM11.3205 28.16C8.6538 28.16 6.1738 28.04 3.88047 27.8C2.52047 27.6667 1.4938 27.5333 0.800469 27.4V21.56C2.3738 21.6933 4.1738 21.8267 6.20047 21.96C7.48047 22.0133 8.38714 22.04 8.92047 22.04C10.3605 22.04 11.3071 22 11.7605 21.92V28.16H11.3205ZM25.5727 0.319995H33.5727V27.84H25.5727V0.319995ZM38.7758 0.319995H46.7758V27.84H38.7758V0.319995ZM48.4558 21.4H57.0158V27.84H48.4558V21.4ZM66.6564 0.319995H67.3364L70.4964 11.28L65.8964 27.84H57.8964L66.6564 0.319995ZM75.6564 22.96H68.9764L70.6564 16.8H73.8564L69.1364 0.319995H76.4564L85.2164 27.84H77.0564L75.6564 22.96ZM87.8773 0.319995H95.8773V27.84H87.8773V0.319995ZM97.5573 13.16H98.5173C99.3707 13.16 99.9973 13.1333 100.397 13.08C100.824 13 101.157 12.84 101.397 12.6C101.637 12.3867 101.784 12.08 101.837 11.68C101.917 11.2533 101.957 10.6267 101.957 9.79999C101.957 8.97333 101.917 8.36 101.837 7.96C101.784 7.53333 101.637 7.2 101.397 6.96C101.157 6.74666 100.824 6.61333 100.397 6.56C99.9707 6.48 99.344 6.44 98.5173 6.44H97.5573V0.319995H100.877C102.851 0.319995 104.451 0.519995 105.677 0.919995C106.931 1.29333 107.877 1.88 108.517 2.68C109.131 3.42666 109.544 4.37333 109.757 5.52C109.971 6.64 110.077 8.06666 110.077 9.79999C110.077 11.4533 109.971 12.8267 109.757 13.92C109.571 15.0133 109.184 15.9333 108.597 16.68C107.931 17.5333 106.971 18.1867 105.717 18.64C104.491 19.0667 102.877 19.28 100.877 19.28H97.5573V13.16Z" fill="white"/>
</svg>
