<?xml version="1.0" standalone="no"?>
<svg xmlns="http://www.w3.org/2000/svg" width="1024" height="1331" viewBox="0 0 1000 1300"><defs><clipPath id="clip-path-dot-color"><circle cx="164" cy="380" r="12" transform="rotate(0,164,380)"/><path d="M 152 464v 24h 24a 24 24, 0, 0, 0, -24 -24" transform="rotate(-90,164,476)"/><rect x="152" y="488" width="24" height="24" transform="rotate(0,164,500)"/><path d="M 152 512v 24h 12a 12 12, 0, 0, 0, 0 -24" transform="rotate(90,164,524)"/><path d="M 152 584v 24h 12a 12 12, 0, 0, 0, 0 -24" transform="rotate(-90,164,596)"/><path d="M 152 608v 24h 12a 12 12, 0, 0, 0, 0 -24" transform="rotate(90,164,620)"/><rect x="176" y="464" width="24" height="24" transform="rotate(0,188,476)"/><path d="M 176 536v 24h 24a 24 24, 0, 0, 0, -24 -24" transform="rotate(-90,188,548)"/><path d="M 176 560v 24h 24a 24 24, 0, 0, 0, -24 -24" transform="rotate(180,188,572)"/><path d="M 176 632v 24h 12a 12 12, 0, 0, 0, 0 -24" transform="rotate(180,188,644)"/><circle cx="212" cy="356" r="12" transform="rotate(0,212,356)"/><path d="M 200 416v 24h 12a 12 12, 0, 0, 0, 0 -24" transform="rotate(-90,212,428)"/><rect x="200" y="440" width="24" height="24" transform="rotate(0,212,452)"/><rect x="200" y="464" width="24" height="24" transform="rotate(0,212,476)"/><rect x="200" y="488" width="24" height="24" transform="rotate(0,212,500)"/><rect x="200" y="512" width="24" height="24" transform="rotate(0,212,524)"/><rect x="200" y="536" width="24" height="24" transform="rotate(0,212,548)"/><path d="M 200 560v 24h 24a 24 24, 0, 0, 0, -24 -24" transform="rotate(90,212,572)"/><path d="M 200 608v 24h 24a 24 24, 0, 0, 0, -24 -24" transform="rotate(-90,212,620)"/><path d="M 200 632v 24h 24a 24 24, 0, 0, 0, -24 -24" transform="rotate(90,212,644)"/><path d="M 224 440v 24h 12a 12 12, 0, 0, 0, 0 -24" transform="rotate(0,236,452)"/><rect x="224" y="488" width="24" height="24" transform="rotate(0,236,500)"/><rect x="224" y="512" width="24" height="24" transform="rotate(0,236,524)"/><path d="M 224 536v 24h 24a 24 24, 0, 0, 0, -24 -24" transform="rotate(90,236,548)"/><path d="M 224 584v 24h 12a 12 12, 0, 0, 0, 0 -24" transform="rotate(-90,236,596)"/><path d="M 224 608v 24h 24a 24 24, 0, 0, 0, -24 -24" transform="rotate(90,236,620)"/><path d="M 248 344v 24h 24a 24 24, 0, 0, 0, -24 -24" transform="rotate(-90,260,356)"/><rect x="248" y="368" width="24" height="24" transform="rotate(0,260,380)"/><rect x="248" y="392" width="24" height="24" transform="rotate(0,260,404)"/><path d="M 248 416v 24h 24a 24 24, 0, 0, 0, -24 -24" transform="rotate(180,260,428)"/><path d="M 248 464v 24h 12a 12 12, 0, 0, 0, 0 -24" transform="rotate(-90,260,476)"/><path d="M 248 488v 24h 24a 24 24, 0, 0, 0, -24 -24" transform="rotate(90,260,500)"/><rect x="272" y="344" width="24" height="24" transform="rotate(0,284,356)"/><path d="M 272 368v 24h 24a 24 24, 0, 0, 0, -24 -24" transform="rotate(90,284,380)"/><path d="M 272 416v 24h 24a 24 24, 0, 0, 0, -24 -24" transform="rotate(0,284,428)"/><path d="M 272 440v 24h 24a 24 24, 0, 0, 0, -24 -24" transform="rotate(180,284,452)"/><path d="M 272 584v 24h 24a 24 24, 0, 0, 0, -24 -24" transform="rotate(-90,284,596)"/><rect x="272" y="608" width="24" height="24" transform="rotate(0,284,620)"/><path d="M 272 632v 24h 24a 24 24, 0, 0, 0, -24 -24" transform="rotate(180,284,644)"/><path d="M 296 344v 24h 12a 12 12, 0, 0, 0, 0 -24" transform="rotate(0,308,356)"/><circle cx="308" cy="404" r="12" transform="rotate(0,308,404)"/><path d="M 296 440v 24h 12a 12 12, 0, 0, 0, 0 -24" transform="rotate(0,308,452)"/><circle cx="308" cy="500" r="12" transform="rotate(0,308,500)"/><circle cx="308" cy="548" r="12" transform="rotate(0,308,548)"/><rect x="296" y="584" width="24" height="24" transform="rotate(0,308,596)"/><path d="M 296 632v 24h 12a 12 12, 0, 0, 0, 0 -24" transform="rotate(0,308,644)"/><path d="M 320 416v 24h 12a 12 12, 0, 0, 0, 0 -24" transform="rotate(180,332,428)"/><path d="M 320 560v 24h 12a 12 12, 0, 0, 0, 0 -24" transform="rotate(-90,332,572)"/><rect x="320" y="584" width="24" height="24" transform="rotate(0,332,596)"/><path d="M 320 608v 24h 24a 24 24, 0, 0, 0, -24 -24" transform="rotate(180,332,620)"/><path d="M 344 176v 24h 12a 12 12, 0, 0, 0, 0 -24" transform="rotate(180,356,188)"/><path d="M 344 248v 24h 12a 12 12, 0, 0, 0, 0 -24" transform="rotate(180,356,260)"/><circle cx="356" cy="308" r="12" transform="rotate(0,356,308)"/><path d="M 344 344v 24h 12a 12 12, 0, 0, 0, 0 -24" transform="rotate(-90,356,356)"/><rect x="344" y="368" width="24" height="24" transform="rotate(0,356,380)"/><rect x="344" y="392" width="24" height="24" transform="rotate(0,356,404)"/><rect x="344" y="416" width="24" height="24" transform="rotate(0,356,428)"/><path d="M 344 464v 24h 12a 12 12, 0, 0, 0, 0 -24" transform="rotate(-90,356,476)"/><rect x="344" y="488" width="24" height="24" transform="rotate(0,356,500)"/><path d="M 344 512v 24h 24a 24 24, 0, 0, 0, -24 -24" transform="rotate(180,356,524)"/><path d="M 344 584v 24h 24a 24 24, 0, 0, 0, -24 -24" transform="rotate(0,356,596)"/><rect x="344" y="608" width="24" height="24" transform="rotate(0,356,620)"/><rect x="344" y="632" width="24" height="24" transform="rotate(0,356,644)"/><path d="M 344 656v 24h 24a 24 24, 0, 0, 0, -24 -24" transform="rotate(180,356,668)"/><path d="M 344 704v 24h 24a 24 24, 0, 0, 0, -24 -24" transform="rotate(-90,356,716)"/><path d="M 344 728v 24h 24a 24 24, 0, 0, 0, -24 -24" transform="rotate(180,356,740)"/><path d="M 344 776v 24h 12a 12 12, 0, 0, 0, 0 -24" transform="rotate(180,356,788)"/><path d="M 368 176v 24h 24a 24 24, 0, 0, 0, -24 -24" transform="rotate(0,380,188)"/><path d="M 368 200v 24h 24a 24 24, 0, 0, 0, -24 -24" transform="rotate(180,380,212)"/><path d="M 368 248v 24h 12a 12 12, 0, 0, 0, 0 -24" transform="rotate(0,380,260)"/><path d="M 368 368v 24h 24a 24 24, 0, 0, 0, -24 -24" transform="rotate(0,380,380)"/><rect x="368" y="392" width="24" height="24" transform="rotate(0,380,404)"/><rect x="368" y="416" width="24" height="24" transform="rotate(0,380,428)"/><path d="M 368 440v 24h 12a 12 12, 0, 0, 0, 0 -24" transform="rotate(90,380,452)"/><rect x="368" y="512" width="24" height="24" transform="rotate(0,380,524)"/><rect x="368" y="536" width="24" height="24" transform="rotate(0,380,548)"/><path d="M 368 560v 24h 24a 24 24, 0, 0, 0, -24 -24" transform="rotate(180,380,572)"/><path d="M 368 608v 24h 24a 24 24, 0, 0, 0, -24 -24" transform="rotate(0,380,620)"/><rect x="368" y="632" width="24" height="24" transform="rotate(0,380,644)"/><rect x="368" y="656" width="24" height="24" transform="rotate(0,380,668)"/><rect x="368" y="680" width="24" height="24" transform="rotate(0,380,692)"/><rect x="368" y="704" width="24" height="24" transform="rotate(0,380,716)"/><rect x="368" y="728" width="24" height="24" transform="rotate(0,380,740)"/><path d="M 368 776v 24h 24a 24 24, 0, 0, 0, -24 -24" transform="rotate(0,380,788)"/><rect x="368" y="800" width="24" height="24" transform="rotate(0,380,812)"/><path d="M 368 824v 24h 24a 24 24, 0, 0, 0, -24 -24" transform="rotate(180,380,836)"/><path d="M 392 152v 24h 12a 12 12, 0, 0, 0, 0 -24" transform="rotate(180,404,164)"/><rect x="392" y="200" width="24" height="24" transform="rotate(0,404,212)"/><path d="M 392 296v 24h 12a 12 12, 0, 0, 0, 0 -24" transform="rotate(-90,404,308)"/><path d="M 392 320v 24h 12a 12 12, 0, 0, 0, 0 -24" transform="rotate(90,404,332)"/><rect x="392" y="416" width="24" height="24" transform="rotate(0,404,428)"/><path d="M 392 464v 24h 24a 24 24, 0, 0, 0, -24 -24" transform="rotate(-90,404,476)"/><rect x="392" y="488" width="24" height="24" transform="rotate(0,404,500)"/><rect x="392" y="512" width="24" height="24" transform="rotate(0,404,524)"/><rect x="392" y="560" width="24" height="24" transform="rotate(0,404,572)"/><path d="M 392 632v 24h 24a 24 24, 0, 0, 0, -24 -24" transform="rotate(0,404,644)"/><rect x="392" y="656" width="24" height="24" transform="rotate(0,404,668)"/><path d="M 392 728v 24h 24a 24 24, 0, 0, 0, -24 -24" transform="rotate(0,404,740)"/><path d="M 392 752v 24h 24a 24 24, 0, 0, 0, -24 -24" transform="rotate(180,404,764)"/><rect x="392" y="824" width="24" height="24" transform="rotate(0,404,836)"/><path d="M 416 152v 24h 24a 24 24, 0, 0, 0, -24 -24" transform="rotate(0,428,164)"/><rect x="416" y="176" width="24" height="24" transform="rotate(0,428,188)"/><rect x="416" y="200" width="24" height="24" transform="rotate(0,428,212)"/><path d="M 416 224v 24h 12a 12 12, 0, 0, 0, 0 -24" transform="rotate(90,428,236)"/><path d="M 416 368v 24h 12a 12 12, 0, 0, 0, 0 -24" transform="rotate(-90,428,380)"/><rect x="416" y="392" width="24" height="24" transform="rotate(0,428,404)"/><rect x="416" y="416" width="24" height="24" transform="rotate(0,428,428)"/><rect x="416" y="464" width="24" height="24" transform="rotate(0,428,476)"/><rect x="416" y="512" width="24" height="24" transform="rotate(0,428,524)"/><rect x="416" y="536" width="24" height="24" transform="rotate(0,428,548)"/><rect x="416" y="560" width="24" height="24" transform="rotate(0,428,572)"/><path d="M 416 584v 24h 24a 24 24, 0, 0, 0, -24 -24" transform="rotate(180,428,596)"/><path d="M 416 656v 24h 12a 12 12, 0, 0, 0, 0 -24" transform="rotate(0,428,668)"/><path d="M 416 752v 24h 12a 12 12, 0, 0, 0, 0 -24" transform="rotate(0,428,764)"/><path d="M 416 800v 24h 12a 12 12, 0, 0, 0, 0 -24" transform="rotate(-90,428,812)"/><rect x="416" y="824" width="24" height="24" transform="rotate(0,428,836)"/><path d="M 440 176v 24h 24a 24 24, 0, 0, 0, -24 -24" transform="rotate(0,452,188)"/><rect x="440" y="200" width="24" height="24" transform="rotate(0,452,212)"/><circle cx="452" cy="260" r="12" transform="rotate(0,452,260)"/><path d="M 440 296v 24h 12a 12 12, 0, 0, 0, 0 -24" transform="rotate(-90,452,308)"/><rect x="440" y="320" width="24" height="24" transform="rotate(0,452,332)"/><path d="M 440 344v 24h 24a 24 24, 0, 0, 0, -24 -24" transform="rotate(180,452,356)"/><rect x="440" y="416" width="24" height="24" transform="rotate(0,452,428)"/><rect x="440" y="464" width="24" height="24" transform="rotate(0,452,476)"/><rect x="440" y="512" width="24" height="24" transform="rotate(0,452,524)"/><rect x="440" y="536" width="24" height="24" transform="rotate(0,452,548)"/><rect x="440" y="560" width="24" height="24" transform="rotate(0,452,572)"/><rect x="440" y="584" width="24" height="24" transform="rotate(0,452,596)"/><path d="M 440 608v 24h 12a 12 12, 0, 0, 0, 0 -24" transform="rotate(90,452,620)"/><circle cx="452" cy="716" r="12" transform="rotate(0,452,716)"/><path d="M 440 824v 24h 12a 12 12, 0, 0, 0, 0 -24" transform="rotate(0,452,836)"/><path d="M 464 152v 24h 12a 12 12, 0, 0, 0, 0 -24" transform="rotate(180,476,164)"/><path d="M 464 200v 24h 12a 12 12, 0, 0, 0, 0 -24" transform="rotate(0,476,212)"/><circle cx="476" cy="284" r="12" transform="rotate(0,476,284)"/><rect x="464" y="320" width="24" height="24" transform="rotate(0,476,332)"/><path d="M 464 344v 24h 24a 24 24, 0, 0, 0, -24 -24" transform="rotate(90,476,356)"/><rect x="464" y="416" width="24" height="24" transform="rotate(0,476,428)"/><path d="M 464 464v 24h 12a 12 12, 0, 0, 0, 0 -24" transform="rotate(0,476,476)"/><path d="M 464 512v 24h 12a 12 12, 0, 0, 0, 0 -24" transform="rotate(0,476,524)"/><path d="M 464 560v 24h 24a 24 24, 0, 0, 0, -24 -24" transform="rotate(0,476,572)"/><rect x="464" y="584" width="24" height="24" transform="rotate(0,476,596)"/><path d="M 464 680v 24h 12a 12 12, 0, 0, 0, 0 -24" transform="rotate(180,476,692)"/><path d="M 464 728v 24h 12a 12 12, 0, 0, 0, 0 -24" transform="rotate(180,476,740)"/><circle cx="476" cy="788" r="12" transform="rotate(0,476,788)"/><path d="M 488 152v 24h 12a 12 12, 0, 0, 0, 0 -24" transform="rotate(0,500,164)"/><circle cx="500" cy="236" r="12" transform="rotate(0,500,236)"/><path d="M 488 296v 24h 12a 12 12, 0, 0, 0, 0 -24" transform="rotate(-90,500,308)"/><rect x="488" y="320" width="24" height="24" transform="rotate(0,500,332)"/><circle cx="500" cy="380" r="12" transform="rotate(0,500,380)"/><rect x="488" y="416" width="24" height="24" transform="rotate(0,500,428)"/><circle cx="500" cy="500" r="12" transform="rotate(0,500,500)"/><circle cx="500" cy="548" r="12" transform="rotate(0,500,548)"/><path d="M 488 584v 24h 12a 12 12, 0, 0, 0, 0 -24" transform="rotate(0,500,596)"/><circle cx="500" cy="644" r="12" transform="rotate(0,500,644)"/><path d="M 488 680v 24h 12a 12 12, 0, 0, 0, 0 -24" transform="rotate(0,500,692)"/><path d="M 488 728v 24h 12a 12 12, 0, 0, 0, 0 -24" transform="rotate(0,500,740)"/><path d="M 488 824v 24h 12a 12 12, 0, 0, 0, 0 -24" transform="rotate(180,500,836)"/><circle cx="524" cy="188" r="12" transform="rotate(0,524,188)"/><path d="M 512 248v 24h 12a 12 12, 0, 0, 0, 0 -24" transform="rotate(-90,524,260)"/><path d="M 512 272v 24h 24a 24 24, 0, 0, 0, -24 -24" transform="rotate(180,524,284)"/><rect x="512" y="320" width="24" height="24" transform="rotate(0,524,332)"/><path d="M 512 392v 24h 24a 24 24, 0, 0, 0, -24 -24" transform="rotate(-90,524,404)"/><rect x="512" y="416" width="24" height="24" transform="rotate(0,524,428)"/><rect x="512" y="440" width="24" height="24" transform="rotate(0,524,452)"/><path d="M 512 464v 24h 12a 12 12, 0, 0, 0, 0 -24" transform="rotate(90,524,476)"/><path d="M 512 656v 24h 12a 12 12, 0, 0, 0, 0 -24" transform="rotate(180,524,668)"/><circle cx="524" cy="716" r="12" transform="rotate(0,524,716)"/><circle cx="524" cy="764" r="12" transform="rotate(0,524,764)"/><path d="M 512 800v 24h 24a 24 24, 0, 0, 0, -24 -24" transform="rotate(-90,524,812)"/><rect x="512" y="824" width="24" height="24" transform="rotate(0,524,836)"/><path d="M 536 152v 24h 12a 12 12, 0, 0, 0, 0 -24" transform="rotate(180,548,164)"/><circle cx="548" cy="212" r="12" transform="rotate(0,548,212)"/><path d="M 536 272v 24h 24a 24 24, 0, 0, 0, -24 -24" transform="rotate(0,548,284)"/><rect x="536" y="296" width="24" height="24" transform="rotate(0,548,308)"/><rect x="536" y="320" width="24" height="24" transform="rotate(0,548,332)"/><path d="M 536 368v 24h 12a 12 12, 0, 0, 0, 0 -24" transform="rotate(-90,548,380)"/><rect x="536" y="392" width="24" height="24" transform="rotate(0,548,404)"/><rect x="536" y="416" width="24" height="24" transform="rotate(0,548,428)"/><path d="M 536 440v 24h 24a 24 24, 0, 0, 0, -24 -24" transform="rotate(90,548,452)"/><circle cx="548" cy="548" r="12" transform="rotate(0,548,548)"/><path d="M 536 608v 24h 12a 12 12, 0, 0, 0, 0 -24" transform="rotate(-90,548,620)"/><rect x="536" y="632" width="24" height="24" transform="rotate(0,548,644)"/><path d="M 536 656v 24h 24a 24 24, 0, 0, 0, -24 -24" transform="rotate(90,548,668)"/><path d="M 536 800v 24h 24a 24 24, 0, 0, 0, -24 -24" transform="rotate(0,548,812)"/><rect x="536" y="824" width="24" height="24" transform="rotate(0,548,836)"/><path d="M 560 152v 24h 24a 24 24, 0, 0, 0, -24 -24" transform="rotate(0,572,164)"/><path d="M 560 176v 24h 12a 12 12, 0, 0, 0, 0 -24" transform="rotate(90,572,188)"/><rect x="560" y="320" width="24" height="24" transform="rotate(0,572,332)"/><path d="M 560 488v 24h 12a 12 12, 0, 0, 0, 0 -24" transform="rotate(180,572,500)"/><path d="M 560 560v 24h 12a 12 12, 0, 0, 0, 0 -24" transform="rotate(-90,572,572)"/><path d="M 560 584v 24h 24a 24 24, 0, 0, 0, -24 -24" transform="rotate(180,572,596)"/><path d="M 560 680v 24h 12a 12 12, 0, 0, 0, 0 -24" transform="rotate(-90,572,692)"/><rect x="560" y="704" width="24" height="24" transform="rotate(0,572,716)"/><path d="M 560 728v 24h 24a 24 24, 0, 0, 0, -24 -24" transform="rotate(180,572,740)"/><path d="M 560 776v 24h 12a 12 12, 0, 0, 0, 0 -24" transform="rotate(180,572,788)"/><rect x="560" y="824" width="24" height="24" transform="rotate(0,572,836)"/><path d="M 584 200v 24h 12a 12 12, 0, 0, 0, 0 -24" transform="rotate(180,596,212)"/><path d="M 584 248v 24h 24a 24 24, 0, 0, 0, -24 -24" transform="rotate(-90,596,260)"/><rect x="584" y="272" width="24" height="24" transform="rotate(0,596,284)"/><rect x="584" y="296" width="24" height="24" transform="rotate(0,596,308)"/><rect x="584" y="320" width="24" height="24" transform="rotate(0,596,332)"/><rect x="584" y="344" width="24" height="24" transform="rotate(0,596,356)"/><path d="M 584 368v 24h 12a 12 12, 0, 0, 0, 0 -24" transform="rotate(90,596,380)"/><circle cx="596" cy="428" r="12" transform="rotate(0,596,428)"/><path d="M 584 464v 24h 24a 24 24, 0, 0, 0, -24 -24" transform="rotate(-90,596,476)"/><rect x="584" y="488" width="24" height="24" transform="rotate(0,596,500)"/><path d="M 584 512v 24h 24a 24 24, 0, 0, 0, -24 -24" transform="rotate(180,596,524)"/><path d="M 584 584v 24h 12a 12 12, 0, 0, 0, 0 -24" transform="rotate(0,596,596)"/><path d="M 584 704v 24h 24a 24 24, 0, 0, 0, -24 -24" transform="rotate(0,596,716)"/><path d="M 584 728v 24h 24a 24 24, 0, 0, 0, -24 -24" transform="rotate(90,596,740)"/><path d="M 584 776v 24h 12a 12 12, 0, 0, 0, 0 -24" transform="rotate(0,596,788)"/><path d="M 584 824v 24h 12a 12 12, 0, 0, 0, 0 -24" transform="rotate(0,596,836)"/><path d="M 608 200v 24h 24a 24 24, 0, 0, 0, -24 -24" transform="rotate(0,620,212)"/><rect x="608" y="224" width="24" height="24" transform="rotate(0,620,236)"/><rect x="608" y="248" width="24" height="24" transform="rotate(0,620,260)"/><circle cx="620" cy="404" r="12" transform="rotate(0,620,404)"/><path d="M 608 440v 24h 24a 24 24, 0, 0, 0, -24 -24" transform="rotate(-90,620,452)"/><rect x="608" y="464" width="24" height="24" transform="rotate(0,620,476)"/><rect x="608" y="488" width="24" height="24" transform="rotate(0,620,500)"/><rect x="608" y="512" width="24" height="24" transform="rotate(0,620,524)"/><rect x="608" y="536" width="24" height="24" transform="rotate(0,620,548)"/><path d="M 608 560v 24h 24a 24 24, 0, 0, 0, -24 -24" transform="rotate(180,620,572)"/><path d="M 608 608v 24h 12a 12 12, 0, 0, 0, 0 -24" transform="rotate(180,620,620)"/><circle cx="620" cy="764" r="12" transform="rotate(0,620,764)"/><circle cx="620" cy="812" r="12" transform="rotate(0,620,812)"/><path d="M 632 152v 24h 12a 12 12, 0, 0, 0, 0 -24" transform="rotate(-90,644,164)"/><path d="M 632 176v 24h 12a 12 12, 0, 0, 0, 0 -24" transform="rotate(90,644,188)"/><path d="M 632 248v 24h 12a 12 12, 0, 0, 0, 0 -24" transform="rotate(0,644,260)"/><circle cx="644" cy="308" r="12" transform="rotate(0,644,308)"/><path d="M 632 344v 24h 12a 12 12, 0, 0, 0, 0 -24" transform="rotate(180,644,356)"/><path d="M 632 440v 24h 24a 24 24, 0, 0, 0, -24 -24" transform="rotate(0,644,452)"/><rect x="632" y="464" width="24" height="24" transform="rotate(0,644,476)"/><path d="M 632 560v 24h 12a 12 12, 0, 0, 0, 0 -24" transform="rotate(0,644,572)"/><path d="M 632 608v 24h 24a 24 24, 0, 0, 0, -24 -24" transform="rotate(0,644,620)"/><rect x="632" y="632" width="24" height="24" transform="rotate(0,644,644)"/><rect x="632" y="656" width="24" height="24" transform="rotate(0,644,668)"/><rect x="632" y="680" width="24" height="24" transform="rotate(0,644,692)"/><rect x="632" y="704" width="24" height="24" transform="rotate(0,644,716)"/><path d="M 632 728v 24h 24a 24 24, 0, 0, 0, -24 -24" transform="rotate(180,644,740)"/><path d="M 632 776v 24h 12a 12 12, 0, 0, 0, 0 -24" transform="rotate(180,644,788)"/><circle cx="644" cy="836" r="12" transform="rotate(0,644,836)"/><path d="M 656 344v 24h 24a 24 24, 0, 0, 0, -24 -24" transform="rotate(0,668,356)"/><path d="M 656 368v 24h 12a 12 12, 0, 0, 0, 0 -24" transform="rotate(90,668,380)"/><path d="M 656 416v 24h 12a 12 12, 0, 0, 0, 0 -24" transform="rotate(180,668,428)"/><rect x="656" y="464" width="24" height="24" transform="rotate(0,668,476)"/><path d="M 656 512v 24h 12a 12 12, 0, 0, 0, 0 -24" transform="rotate(180,668,524)"/><circle cx="668" cy="596" r="12" transform="rotate(0,668,596)"/><rect x="656" y="632" width="24" height="24" transform="rotate(0,668,644)"/><rect x="656" y="728" width="24" height="24" transform="rotate(0,668,740)"/><path d="M 656 776v 24h 12a 12 12, 0, 0, 0, 0 -24" transform="rotate(0,668,788)"/><path d="M 680 392v 24h 24a 24 24, 0, 0, 0, -24 -24" transform="rotate(-90,692,404)"/><rect x="680" y="416" width="24" height="24" transform="rotate(0,692,428)"/><rect x="680" y="440" width="24" height="24" transform="rotate(0,692,452)"/><rect x="680" y="464" width="24" height="24" transform="rotate(0,692,476)"/><path d="M 680 512v 24h 12a 12 12, 0, 0, 0, 0 -24" transform="rotate(0,692,524)"/><path d="M 680 560v 24h 12a 12 12, 0, 0, 0, 0 -24" transform="rotate(180,692,572)"/><path d="M 680 608v 24h 24a 24 24, 0, 0, 0, -24 -24" transform="rotate(-90,692,620)"/><rect x="680" y="632" width="24" height="24" transform="rotate(0,692,644)"/><circle cx="692" cy="692" r="12" transform="rotate(0,692,692)"/><rect x="680" y="728" width="24" height="24" transform="rotate(0,692,740)"/><circle cx="692" cy="836" r="12" transform="rotate(0,692,836)"/><rect x="704" y="392" width="24" height="24" transform="rotate(0,716,404)"/><rect x="704" y="464" width="24" height="24" transform="rotate(0,716,476)"/><path d="M 704 488v 24h 12a 12 12, 0, 0, 0, 0 -24" transform="rotate(90,716,500)"/><path d="M 704 560v 24h 24a 24 24, 0, 0, 0, -24 -24" transform="rotate(0,716,572)"/><rect x="704" y="584" width="24" height="24" transform="rotate(0,716,596)"/><rect x="704" y="608" width="24" height="24" transform="rotate(0,716,620)"/><rect x="704" y="632" width="24" height="24" transform="rotate(0,716,644)"/><rect x="704" y="728" width="24" height="24" transform="rotate(0,716,740)"/><path d="M 704 752v 24h 12a 12 12, 0, 0, 0, 0 -24" transform="rotate(90,716,764)"/><circle cx="740" cy="356" r="12" transform="rotate(0,740,356)"/><path d="M 728 392v 24h 24a 24 24, 0, 0, 0, -24 -24" transform="rotate(0,740,404)"/><rect x="728" y="416" width="24" height="24" transform="rotate(0,740,428)"/><rect x="728" y="440" width="24" height="24" transform="rotate(0,740,452)"/><path d="M 728 464v 24h 24a 24 24, 0, 0, 0, -24 -24" transform="rotate(90,740,476)"/><circle cx="740" cy="524" r="12" transform="rotate(0,740,524)"/><path d="M 728 584v 24h 24a 24 24, 0, 0, 0, -24 -24" transform="rotate(0,740,596)"/><rect x="728" y="608" width="24" height="24" transform="rotate(0,740,620)"/><rect x="728" y="632" width="24" height="24" transform="rotate(0,740,644)"/><rect x="728" y="656" width="24" height="24" transform="rotate(0,740,668)"/><rect x="728" y="680" width="24" height="24" transform="rotate(0,740,692)"/><rect x="728" y="704" width="24" height="24" transform="rotate(0,740,716)"/><path d="M 728 728v 24h 24a 24 24, 0, 0, 0, -24 -24" transform="rotate(90,740,740)"/><path d="M 728 800v 24h 24a 24 24, 0, 0, 0, -24 -24" transform="rotate(-90,740,812)"/><path d="M 728 824v 24h 12a 12 12, 0, 0, 0, 0 -24" transform="rotate(90,740,836)"/><rect x="752" y="416" width="24" height="24" transform="rotate(0,764,428)"/><path d="M 752 440v 24h 24a 24 24, 0, 0, 0, -24 -24" transform="rotate(90,764,452)"/><path d="M 752 536v 24h 24a 24 24, 0, 0, 0, -24 -24" transform="rotate(-90,764,548)"/><path d="M 752 560v 24h 24a 24 24, 0, 0, 0, -24 -24" transform="rotate(180,764,572)"/><path d="M 752 704v 24h 12a 12 12, 0, 0, 0, 0 -24" transform="rotate(0,764,716)"/><rect x="752" y="800" width="24" height="24" transform="rotate(0,764,812)"/><path d="M 776 416v 24h 12a 12 12, 0, 0, 0, 0 -24" transform="rotate(0,788,428)"/><path d="M 776 464v 24h 12a 12 12, 0, 0, 0, 0 -24" transform="rotate(-90,788,476)"/><path d="M 776 488v 24h 24a 24 24, 0, 0, 0, -24 -24" transform="rotate(180,788,500)"/><path d="M 776 536v 24h 24a 24 24, 0, 0, 0, -24 -24" transform="rotate(0,788,548)"/><rect x="776" y="560" width="24" height="24" transform="rotate(0,788,572)"/><path d="M 776 608v 24h 12a 12 12, 0, 0, 0, 0 -24" transform="rotate(-90,788,620)"/><rect x="776" y="632" width="24" height="24" transform="rotate(0,788,644)"/><path d="M 776 656v 24h 24a 24 24, 0, 0, 0, -24 -24" transform="rotate(180,788,668)"/><path d="M 776 752v 24h 12a 12 12, 0, 0, 0, 0 -24" transform="rotate(-90,788,764)"/><rect x="776" y="776" width="24" height="24" transform="rotate(0,788,788)"/><rect x="776" y="800" width="24" height="24" transform="rotate(0,788,812)"/><path d="M 776 824v 24h 24a 24 24, 0, 0, 0, -24 -24" transform="rotate(180,788,836)"/><path d="M 800 344v 24h 12a 12 12, 0, 0, 0, 0 -24" transform="rotate(-90,812,356)"/><path d="M 800 368v 24h 24a 24 24, 0, 0, 0, -24 -24" transform="rotate(180,812,380)"/><circle cx="812" cy="452" r="12" transform="rotate(0,812,452)"/><rect x="800" y="488" width="24" height="24" transform="rotate(0,812,500)"/><rect x="800" y="560" width="24" height="24" transform="rotate(0,812,572)"/><path d="M 800 584v 24h 12a 12 12, 0, 0, 0, 0 -24" transform="rotate(90,812,596)"/><rect x="800" y="632" width="24" height="24" transform="rotate(0,812,644)"/><rect x="800" y="656" width="24" height="24" transform="rotate(0,812,668)"/><circle cx="812" cy="716" r="12" transform="rotate(0,812,716)"/><rect x="800" y="800" width="24" height="24" transform="rotate(0,812,812)"/><path d="M 800 824v 24h 24a 24 24, 0, 0, 0, -24 -24" transform="rotate(90,812,836)"/><path d="M 824 368v 24h 12a 12 12, 0, 0, 0, 0 -24" transform="rotate(0,836,380)"/><path d="M 824 488v 24h 24a 24 24, 0, 0, 0, -24 -24" transform="rotate(0,836,500)"/><path d="M 824 512v 24h 12a 12 12, 0, 0, 0, 0 -24" transform="rotate(90,836,524)"/><path d="M 824 560v 24h 12a 12 12, 0, 0, 0, 0 -24" transform="rotate(0,836,572)"/><path d="M 824 632v 24h 24a 24 24, 0, 0, 0, -24 -24" transform="rotate(0,836,644)"/><path d="M 824 656v 24h 24a 24 24, 0, 0, 0, -24 -24" transform="rotate(90,836,668)"/><circle cx="836" cy="740" r="12" transform="rotate(0,836,740)"/><path d="M 824 800v 24h 12a 12 12, 0, 0, 0, 0 -24" transform="rotate(0,836,812)"/></clipPath><clipPath id="clip-path-corners-square-color-0-0"><path d="M 152 152v 24h 24a 24 24, 0, 0, 0, -24 -24" transform="rotate(-90,164,164)"/><rect x="152" y="176" width="24" height="24" transform="rotate(0,164,188)"/><rect x="152" y="200" width="24" height="24" transform="rotate(0,164,212)"/><rect x="152" y="224" width="24" height="24" transform="rotate(0,164,236)"/><rect x="152" y="248" width="24" height="24" transform="rotate(0,164,260)"/><rect x="152" y="272" width="24" height="24" transform="rotate(0,164,284)"/><path d="M 152 296v 24h 24a 24 24, 0, 0, 0, -24 -24" transform="rotate(180,164,308)"/><rect x="176" y="152" width="24" height="24" transform="rotate(0,188,164)"/><rect x="176" y="296" width="24" height="24" transform="rotate(0,188,308)"/><rect x="200" y="152" width="24" height="24" transform="rotate(0,212,164)"/><rect x="200" y="296" width="24" height="24" transform="rotate(0,212,308)"/><rect x="224" y="152" width="24" height="24" transform="rotate(0,236,164)"/><rect x="224" y="296" width="24" height="24" transform="rotate(0,236,308)"/><rect x="248" y="152" width="24" height="24" transform="rotate(0,260,164)"/><rect x="248" y="296" width="24" height="24" transform="rotate(0,260,308)"/><rect x="272" y="152" width="24" height="24" transform="rotate(0,284,164)"/><rect x="272" y="296" width="24" height="24" transform="rotate(0,284,308)"/><path d="M 296 152v 24h 24a 24 24, 0, 0, 0, -24 -24" transform="rotate(0,308,164)"/><rect x="296" y="176" width="24" height="24" transform="rotate(0,308,188)"/><rect x="296" y="200" width="24" height="24" transform="rotate(0,308,212)"/><rect x="296" y="224" width="24" height="24" transform="rotate(0,308,236)"/><rect x="296" y="248" width="24" height="24" transform="rotate(0,308,260)"/><rect x="296" y="272" width="24" height="24" transform="rotate(0,308,284)"/><path d="M 296 296v 24h 24a 24 24, 0, 0, 0, -24 -24" transform="rotate(90,308,308)"/></clipPath><clipPath id="clip-path-corners-dot-color-0-0"><path d="M 200 200v 24h 24a 24 24, 0, 0, 0, -24 -24" transform="rotate(-90,212,212)"/><rect x="200" y="224" width="24" height="24" transform="rotate(0,212,236)"/><path d="M 200 248v 24h 24a 24 24, 0, 0, 0, -24 -24" transform="rotate(180,212,260)"/><rect x="224" y="200" width="24" height="24" transform="rotate(0,236,212)"/><rect x="224" y="224" width="24" height="24" transform="rotate(0,236,236)"/><rect x="224" y="248" width="24" height="24" transform="rotate(0,236,260)"/><path d="M 248 200v 24h 24a 24 24, 0, 0, 0, -24 -24" transform="rotate(0,260,212)"/><rect x="248" y="224" width="24" height="24" transform="rotate(0,260,236)"/><path d="M 248 248v 24h 24a 24 24, 0, 0, 0, -24 -24" transform="rotate(90,260,260)"/></clipPath><clipPath id="clip-path-corners-square-color-1-0"><path d="M 680 152v 24h 24a 24 24, 0, 0, 0, -24 -24" transform="rotate(-90,692,164)"/><rect x="680" y="176" width="24" height="24" transform="rotate(0,692,188)"/><rect x="680" y="200" width="24" height="24" transform="rotate(0,692,212)"/><rect x="680" y="224" width="24" height="24" transform="rotate(0,692,236)"/><rect x="680" y="248" width="24" height="24" transform="rotate(0,692,260)"/><rect x="680" y="272" width="24" height="24" transform="rotate(0,692,284)"/><path d="M 680 296v 24h 24a 24 24, 0, 0, 0, -24 -24" transform="rotate(180,692,308)"/><rect x="704" y="152" width="24" height="24" transform="rotate(0,716,164)"/><rect x="704" y="296" width="24" height="24" transform="rotate(0,716,308)"/><rect x="728" y="152" width="24" height="24" transform="rotate(0,740,164)"/><rect x="728" y="296" width="24" height="24" transform="rotate(0,740,308)"/><rect x="752" y="152" width="24" height="24" transform="rotate(0,764,164)"/><rect x="752" y="296" width="24" height="24" transform="rotate(0,764,308)"/><rect x="776" y="152" width="24" height="24" transform="rotate(0,788,164)"/><rect x="776" y="296" width="24" height="24" transform="rotate(0,788,308)"/><rect x="800" y="152" width="24" height="24" transform="rotate(0,812,164)"/><rect x="800" y="296" width="24" height="24" transform="rotate(0,812,308)"/><path d="M 824 152v 24h 24a 24 24, 0, 0, 0, -24 -24" transform="rotate(0,836,164)"/><rect x="824" y="176" width="24" height="24" transform="rotate(0,836,188)"/><rect x="824" y="200" width="24" height="24" transform="rotate(0,836,212)"/><rect x="824" y="224" width="24" height="24" transform="rotate(0,836,236)"/><rect x="824" y="248" width="24" height="24" transform="rotate(0,836,260)"/><rect x="824" y="272" width="24" height="24" transform="rotate(0,836,284)"/><path d="M 824 296v 24h 24a 24 24, 0, 0, 0, -24 -24" transform="rotate(90,836,308)"/></clipPath><clipPath id="clip-path-corners-dot-color-1-0"><path d="M 728 200v 24h 24a 24 24, 0, 0, 0, -24 -24" transform="rotate(-90,740,212)"/><rect x="728" y="224" width="24" height="24" transform="rotate(0,740,236)"/><path d="M 728 248v 24h 24a 24 24, 0, 0, 0, -24 -24" transform="rotate(180,740,260)"/><rect x="752" y="200" width="24" height="24" transform="rotate(0,764,212)"/><rect x="752" y="224" width="24" height="24" transform="rotate(0,764,236)"/><rect x="752" y="248" width="24" height="24" transform="rotate(0,764,260)"/><path d="M 776 200v 24h 24a 24 24, 0, 0, 0, -24 -24" transform="rotate(0,788,212)"/><rect x="776" y="224" width="24" height="24" transform="rotate(0,788,236)"/><path d="M 776 248v 24h 24a 24 24, 0, 0, 0, -24 -24" transform="rotate(90,788,260)"/></clipPath><clipPath id="clip-path-corners-square-color-0-1"><path d="M 152 680v 24h 24a 24 24, 0, 0, 0, -24 -24" transform="rotate(-90,164,692)"/><rect x="152" y="704" width="24" height="24" transform="rotate(0,164,716)"/><rect x="152" y="728" width="24" height="24" transform="rotate(0,164,740)"/><rect x="152" y="752" width="24" height="24" transform="rotate(0,164,764)"/><rect x="152" y="776" width="24" height="24" transform="rotate(0,164,788)"/><rect x="152" y="800" width="24" height="24" transform="rotate(0,164,812)"/><path d="M 152 824v 24h 24a 24 24, 0, 0, 0, -24 -24" transform="rotate(180,164,836)"/><rect x="176" y="680" width="24" height="24" transform="rotate(0,188,692)"/><rect x="176" y="824" width="24" height="24" transform="rotate(0,188,836)"/><rect x="200" y="680" width="24" height="24" transform="rotate(0,212,692)"/><rect x="200" y="824" width="24" height="24" transform="rotate(0,212,836)"/><rect x="224" y="680" width="24" height="24" transform="rotate(0,236,692)"/><rect x="224" y="824" width="24" height="24" transform="rotate(0,236,836)"/><rect x="248" y="680" width="24" height="24" transform="rotate(0,260,692)"/><rect x="248" y="824" width="24" height="24" transform="rotate(0,260,836)"/><rect x="272" y="680" width="24" height="24" transform="rotate(0,284,692)"/><rect x="272" y="824" width="24" height="24" transform="rotate(0,284,836)"/><path d="M 296 680v 24h 24a 24 24, 0, 0, 0, -24 -24" transform="rotate(0,308,692)"/><rect x="296" y="704" width="24" height="24" transform="rotate(0,308,716)"/><rect x="296" y="728" width="24" height="24" transform="rotate(0,308,740)"/><rect x="296" y="752" width="24" height="24" transform="rotate(0,308,764)"/><rect x="296" y="776" width="24" height="24" transform="rotate(0,308,788)"/><rect x="296" y="800" width="24" height="24" transform="rotate(0,308,812)"/><path d="M 296 824v 24h 24a 24 24, 0, 0, 0, -24 -24" transform="rotate(90,308,836)"/></clipPath><clipPath id="clip-path-corners-dot-color-0-1"><path d="M 200 728v 24h 24a 24 24, 0, 0, 0, -24 -24" transform="rotate(-90,212,740)"/><rect x="200" y="752" width="24" height="24" transform="rotate(0,212,764)"/><path d="M 200 776v 24h 24a 24 24, 0, 0, 0, -24 -24" transform="rotate(180,212,788)"/><rect x="224" y="728" width="24" height="24" transform="rotate(0,236,740)"/><rect x="224" y="752" width="24" height="24" transform="rotate(0,236,764)"/><rect x="224" y="776" width="24" height="24" transform="rotate(0,236,788)"/><path d="M 248 728v 24h 24a 24 24, 0, 0, 0, -24 -24" transform="rotate(0,260,740)"/><rect x="248" y="752" width="24" height="24" transform="rotate(0,260,764)"/><path d="M 248 776v 24h 24a 24 24, 0, 0, 0, -24 -24" transform="rotate(90,260,788)"/></clipPath></defs><defs/><path fill="#000000" d="M960,0H40A40,40,0,0,0,0,40V960a40,40,0,0,0,40,40H960a40,40,0,0,0,40-40V40A40,40,0,0,0,960,0Zm0,960H40V40H960Z"/><path fill="#000000" d="M960,1040H40a40,40,0,0,0-40,40v180a40,40,0,0,0,40,40H960a40,40,0,0,0,40-40V1080A40,40,0,0,0,960,1040ZM216,1201.86a12,12,0,0,1-12,12H108a12,12,0,0,1-12-12v-61.72a12,12,0,0,1,12-12h96a12,12,0,0,1,12,12Z"/><polygon fill="#000000" points="139.81 1150 139.81 1171 139.81 1192 158 1181.5 176.19 1171 158 1160.5 139.81 1150"/>
			<text x="60%" y="1180" fill="#ffffff" dominant-baseline="middle" text-anchor="middle" font-family="sans-serif" font-size="90" font-weight="600">Scan Me!</text><rect x="112" y="112" height="776" width="776" clip-path="url('#clip-path-background-color')" fill="#ffffff"/><rect x="152" y="152" height="696" width="696" clip-path="url('#clip-path-dot-color')" fill="#000000"/><rect x="152" y="152" height="168" width="168" clip-path="url('#clip-path-corners-square-color-0-0')" fill="#000000"/><rect x="200" y="200" height="72" width="72" clip-path="url('#clip-path-corners-dot-color-0-0')" fill="#000000"/><rect x="680" y="152" height="168" width="168" clip-path="url('#clip-path-corners-square-color-1-0')" fill="#000000"/><rect x="728" y="200" height="72" width="72" clip-path="url('#clip-path-corners-dot-color-1-0')" fill="#000000"/><rect x="152" y="680" height="168" width="168" clip-path="url('#clip-path-corners-square-color-0-1')" fill="#000000"/><rect x="200" y="728" height="72" width="72" clip-path="url('#clip-path-corners-dot-color-0-1')" fill="#000000"/></svg>