<?xml version="1.0" standalone="no"?>
<svg xmlns="http://www.w3.org/2000/svg" width="1024" height="1014" viewBox="0 0 1000 990"><defs><clipPath id="clip-path-dot-color"><rect x="78" y="182" width="13" height="13" transform="rotate(0,84.5,188.5)"/><rect x="78" y="208" width="13" height="13" transform="rotate(0,84.5,214.5)"/><rect x="78" y="234" width="13" height="13" transform="rotate(0,84.5,240.5)"/><rect x="78" y="247" width="13" height="13" transform="rotate(0,84.5,253.5)"/><rect x="78" y="260" width="13" height="13" transform="rotate(0,84.5,266.5)"/><rect x="78" y="286" width="13" height="13" transform="rotate(0,84.5,292.5)"/><rect x="78" y="299" width="13" height="13" transform="rotate(0,84.5,305.5)"/><rect x="78" y="312" width="13" height="13" transform="rotate(0,84.5,318.5)"/><rect x="78" y="325" width="13" height="13" transform="rotate(0,84.5,331.5)"/><rect x="91" y="182" width="13" height="13" transform="rotate(0,97.5,188.5)"/><rect x="91" y="221" width="13" height="13" transform="rotate(0,97.5,227.5)"/><rect x="91" y="260" width="13" height="13" transform="rotate(0,97.5,266.5)"/><rect x="91" y="286" width="13" height="13" transform="rotate(0,97.5,292.5)"/><rect x="91" y="299" width="13" height="13" transform="rotate(0,97.5,305.5)"/><rect x="91" y="325" width="13" height="13" transform="rotate(0,97.5,331.5)"/><rect x="104" y="208" width="13" height="13" transform="rotate(0,110.5,214.5)"/><rect x="104" y="247" width="13" height="13" transform="rotate(0,110.5,253.5)"/><rect x="104" y="260" width="13" height="13" transform="rotate(0,110.5,266.5)"/><rect x="104" y="273" width="13" height="13" transform="rotate(0,110.5,279.5)"/><rect x="104" y="312" width="13" height="13" transform="rotate(0,110.5,318.5)"/><rect x="104" y="325" width="13" height="13" transform="rotate(0,110.5,331.5)"/><rect x="104" y="338" width="13" height="13" transform="rotate(0,110.5,344.5)"/><rect x="117" y="195" width="13" height="13" transform="rotate(0,123.5,201.5)"/><rect x="117" y="221" width="13" height="13" transform="rotate(0,123.5,227.5)"/><rect x="117" y="286" width="13" height="13" transform="rotate(0,123.5,292.5)"/><rect x="117" y="299" width="13" height="13" transform="rotate(0,123.5,305.5)"/><rect x="117" y="325" width="13" height="13" transform="rotate(0,123.5,331.5)"/><rect x="117" y="338" width="13" height="13" transform="rotate(0,123.5,344.5)"/><rect x="130" y="208" width="13" height="13" transform="rotate(0,136.5,214.5)"/><rect x="130" y="221" width="13" height="13" transform="rotate(0,136.5,227.5)"/><rect x="130" y="273" width="13" height="13" transform="rotate(0,136.5,279.5)"/><rect x="130" y="325" width="13" height="13" transform="rotate(0,136.5,331.5)"/><rect x="130" y="338" width="13" height="13" transform="rotate(0,136.5,344.5)"/><rect x="143" y="208" width="13" height="13" transform="rotate(0,149.5,214.5)"/><rect x="143" y="221" width="13" height="13" transform="rotate(0,149.5,227.5)"/><rect x="143" y="234" width="13" height="13" transform="rotate(0,149.5,240.5)"/><rect x="143" y="247" width="13" height="13" transform="rotate(0,149.5,253.5)"/><rect x="143" y="312" width="13" height="13" transform="rotate(0,149.5,318.5)"/><rect x="156" y="182" width="13" height="13" transform="rotate(0,162.5,188.5)"/><rect x="156" y="208" width="13" height="13" transform="rotate(0,162.5,214.5)"/><rect x="156" y="234" width="13" height="13" transform="rotate(0,162.5,240.5)"/><rect x="156" y="260" width="13" height="13" transform="rotate(0,162.5,266.5)"/><rect x="156" y="286" width="13" height="13" transform="rotate(0,162.5,292.5)"/><rect x="156" y="312" width="13" height="13" transform="rotate(0,162.5,318.5)"/><rect x="156" y="338" width="13" height="13" transform="rotate(0,162.5,344.5)"/><rect x="169" y="195" width="13" height="13" transform="rotate(0,175.5,201.5)"/><rect x="169" y="208" width="13" height="13" transform="rotate(0,175.5,214.5)"/><rect x="169" y="234" width="13" height="13" transform="rotate(0,175.5,240.5)"/><rect x="169" y="247" width="13" height="13" transform="rotate(0,175.5,253.5)"/><rect x="169" y="273" width="13" height="13" transform="rotate(0,175.5,279.5)"/><rect x="169" y="286" width="13" height="13" transform="rotate(0,175.5,292.5)"/><rect x="169" y="325" width="13" height="13" transform="rotate(0,175.5,331.5)"/><rect x="182" y="91" width="13" height="13" transform="rotate(0,188.5,97.5)"/><rect x="182" y="156" width="13" height="13" transform="rotate(0,188.5,162.5)"/><rect x="182" y="169" width="13" height="13" transform="rotate(0,188.5,175.5)"/><rect x="182" y="182" width="13" height="13" transform="rotate(0,188.5,188.5)"/><rect x="182" y="208" width="13" height="13" transform="rotate(0,188.5,214.5)"/><rect x="182" y="221" width="13" height="13" transform="rotate(0,188.5,227.5)"/><rect x="182" y="234" width="13" height="13" transform="rotate(0,188.5,240.5)"/><rect x="182" y="260" width="13" height="13" transform="rotate(0,188.5,266.5)"/><rect x="182" y="312" width="13" height="13" transform="rotate(0,188.5,318.5)"/><rect x="182" y="351" width="13" height="13" transform="rotate(0,188.5,357.5)"/><rect x="182" y="429" width="13" height="13" transform="rotate(0,188.5,435.5)"/><rect x="182" y="442" width="13" height="13" transform="rotate(0,188.5,448.5)"/><rect x="195" y="91" width="13" height="13" transform="rotate(0,201.5,97.5)"/><rect x="195" y="143" width="13" height="13" transform="rotate(0,201.5,149.5)"/><rect x="195" y="169" width="13" height="13" transform="rotate(0,201.5,175.5)"/><rect x="195" y="195" width="13" height="13" transform="rotate(0,201.5,201.5)"/><rect x="195" y="234" width="13" height="13" transform="rotate(0,201.5,240.5)"/><rect x="195" y="247" width="13" height="13" transform="rotate(0,201.5,253.5)"/><rect x="195" y="299" width="13" height="13" transform="rotate(0,201.5,305.5)"/><rect x="195" y="338" width="13" height="13" transform="rotate(0,201.5,344.5)"/><rect x="195" y="377" width="13" height="13" transform="rotate(0,201.5,383.5)"/><rect x="195" y="390" width="13" height="13" transform="rotate(0,201.5,396.5)"/><rect x="195" y="416" width="13" height="13" transform="rotate(0,201.5,422.5)"/><rect x="195" y="429" width="13" height="13" transform="rotate(0,201.5,435.5)"/><rect x="208" y="104" width="13" height="13" transform="rotate(0,214.5,110.5)"/><rect x="208" y="117" width="13" height="13" transform="rotate(0,214.5,123.5)"/><rect x="208" y="130" width="13" height="13" transform="rotate(0,214.5,136.5)"/><rect x="208" y="143" width="13" height="13" transform="rotate(0,214.5,149.5)"/><rect x="208" y="156" width="13" height="13" transform="rotate(0,214.5,162.5)"/><rect x="208" y="208" width="13" height="13" transform="rotate(0,214.5,214.5)"/><rect x="208" y="234" width="13" height="13" transform="rotate(0,214.5,240.5)"/><rect x="208" y="247" width="13" height="13" transform="rotate(0,214.5,253.5)"/><rect x="208" y="260" width="13" height="13" transform="rotate(0,214.5,266.5)"/><rect x="208" y="273" width="13" height="13" transform="rotate(0,214.5,279.5)"/><rect x="208" y="286" width="13" height="13" transform="rotate(0,214.5,292.5)"/><rect x="208" y="312" width="13" height="13" transform="rotate(0,214.5,318.5)"/><rect x="208" y="338" width="13" height="13" transform="rotate(0,214.5,344.5)"/><rect x="208" y="351" width="13" height="13" transform="rotate(0,214.5,357.5)"/><rect x="208" y="364" width="13" height="13" transform="rotate(0,214.5,370.5)"/><rect x="208" y="377" width="13" height="13" transform="rotate(0,214.5,383.5)"/><rect x="208" y="416" width="13" height="13" transform="rotate(0,214.5,422.5)"/><rect x="221" y="91" width="13" height="13" transform="rotate(0,227.5,97.5)"/><rect x="221" y="104" width="13" height="13" transform="rotate(0,227.5,110.5)"/><rect x="221" y="130" width="13" height="13" transform="rotate(0,227.5,136.5)"/><rect x="221" y="143" width="13" height="13" transform="rotate(0,227.5,149.5)"/><rect x="221" y="169" width="13" height="13" transform="rotate(0,227.5,175.5)"/><rect x="221" y="221" width="13" height="13" transform="rotate(0,227.5,227.5)"/><rect x="221" y="247" width="13" height="13" transform="rotate(0,227.5,253.5)"/><rect x="221" y="273" width="13" height="13" transform="rotate(0,227.5,279.5)"/><rect x="221" y="338" width="13" height="13" transform="rotate(0,227.5,344.5)"/><rect x="221" y="364" width="13" height="13" transform="rotate(0,227.5,370.5)"/><rect x="221" y="403" width="13" height="13" transform="rotate(0,227.5,409.5)"/><rect x="234" y="91" width="13" height="13" transform="rotate(0,240.5,97.5)"/><rect x="234" y="104" width="13" height="13" transform="rotate(0,240.5,110.5)"/><rect x="234" y="117" width="13" height="13" transform="rotate(0,240.5,123.5)"/><rect x="234" y="143" width="13" height="13" transform="rotate(0,240.5,149.5)"/><rect x="234" y="156" width="13" height="13" transform="rotate(0,240.5,162.5)"/><rect x="234" y="169" width="13" height="13" transform="rotate(0,240.5,175.5)"/><rect x="234" y="182" width="13" height="13" transform="rotate(0,240.5,188.5)"/><rect x="234" y="195" width="13" height="13" transform="rotate(0,240.5,201.5)"/><rect x="234" y="208" width="13" height="13" transform="rotate(0,240.5,214.5)"/><rect x="234" y="221" width="13" height="13" transform="rotate(0,240.5,227.5)"/><rect x="234" y="247" width="13" height="13" transform="rotate(0,240.5,253.5)"/><rect x="234" y="312" width="13" height="13" transform="rotate(0,240.5,318.5)"/><rect x="234" y="325" width="13" height="13" transform="rotate(0,240.5,331.5)"/><rect x="234" y="351" width="13" height="13" transform="rotate(0,240.5,357.5)"/><rect x="234" y="364" width="13" height="13" transform="rotate(0,240.5,370.5)"/><rect x="234" y="429" width="13" height="13" transform="rotate(0,240.5,435.5)"/><rect x="247" y="91" width="13" height="13" transform="rotate(0,253.5,97.5)"/><rect x="247" y="143" width="13" height="13" transform="rotate(0,253.5,149.5)"/><rect x="247" y="221" width="13" height="13" transform="rotate(0,253.5,227.5)"/><rect x="247" y="247" width="13" height="13" transform="rotate(0,253.5,253.5)"/><rect x="247" y="260" width="13" height="13" transform="rotate(0,253.5,266.5)"/><rect x="247" y="273" width="13" height="13" transform="rotate(0,253.5,279.5)"/><rect x="247" y="299" width="13" height="13" transform="rotate(0,253.5,305.5)"/><rect x="247" y="312" width="13" height="13" transform="rotate(0,253.5,318.5)"/><rect x="247" y="325" width="13" height="13" transform="rotate(0,253.5,331.5)"/><rect x="247" y="338" width="13" height="13" transform="rotate(0,253.5,344.5)"/><rect x="247" y="364" width="13" height="13" transform="rotate(0,253.5,370.5)"/><rect x="247" y="390" width="13" height="13" transform="rotate(0,253.5,396.5)"/><rect x="247" y="403" width="13" height="13" transform="rotate(0,253.5,409.5)"/><rect x="247" y="429" width="13" height="13" transform="rotate(0,253.5,435.5)"/><rect x="247" y="442" width="13" height="13" transform="rotate(0,253.5,448.5)"/><rect x="260" y="78" width="13" height="13" transform="rotate(0,266.5,84.5)"/><rect x="260" y="91" width="13" height="13" transform="rotate(0,266.5,97.5)"/><rect x="260" y="117" width="13" height="13" transform="rotate(0,266.5,123.5)"/><rect x="260" y="130" width="13" height="13" transform="rotate(0,266.5,136.5)"/><rect x="260" y="156" width="13" height="13" transform="rotate(0,266.5,162.5)"/><rect x="260" y="169" width="13" height="13" transform="rotate(0,266.5,175.5)"/><rect x="260" y="195" width="13" height="13" transform="rotate(0,266.5,201.5)"/><rect x="260" y="208" width="13" height="13" transform="rotate(0,266.5,214.5)"/><rect x="260" y="234" width="13" height="13" transform="rotate(0,266.5,240.5)"/><rect x="260" y="260" width="13" height="13" transform="rotate(0,266.5,266.5)"/><rect x="260" y="299" width="13" height="13" transform="rotate(0,266.5,305.5)"/><rect x="260" y="338" width="13" height="13" transform="rotate(0,266.5,344.5)"/><rect x="260" y="364" width="13" height="13" transform="rotate(0,266.5,370.5)"/><rect x="260" y="377" width="13" height="13" transform="rotate(0,266.5,383.5)"/><rect x="260" y="429" width="13" height="13" transform="rotate(0,266.5,435.5)"/><rect x="273" y="91" width="13" height="13" transform="rotate(0,279.5,97.5)"/><rect x="273" y="104" width="13" height="13" transform="rotate(0,279.5,110.5)"/><rect x="273" y="117" width="13" height="13" transform="rotate(0,279.5,123.5)"/><rect x="273" y="130" width="13" height="13" transform="rotate(0,279.5,136.5)"/><rect x="273" y="143" width="13" height="13" transform="rotate(0,279.5,149.5)"/><rect x="273" y="169" width="13" height="13" transform="rotate(0,279.5,175.5)"/><rect x="273" y="182" width="13" height="13" transform="rotate(0,279.5,188.5)"/><rect x="273" y="195" width="13" height="13" transform="rotate(0,279.5,201.5)"/><rect x="273" y="208" width="13" height="13" transform="rotate(0,279.5,214.5)"/><rect x="273" y="273" width="13" height="13" transform="rotate(0,279.5,279.5)"/><rect x="273" y="299" width="13" height="13" transform="rotate(0,279.5,305.5)"/><rect x="273" y="312" width="13" height="13" transform="rotate(0,279.5,318.5)"/><rect x="273" y="338" width="13" height="13" transform="rotate(0,279.5,344.5)"/><rect x="273" y="364" width="13" height="13" transform="rotate(0,279.5,370.5)"/><rect x="273" y="390" width="13" height="13" transform="rotate(0,279.5,396.5)"/><rect x="273" y="403" width="13" height="13" transform="rotate(0,279.5,409.5)"/><rect x="273" y="416" width="13" height="13" transform="rotate(0,279.5,422.5)"/><rect x="273" y="429" width="13" height="13" transform="rotate(0,279.5,435.5)"/><rect x="273" y="442" width="13" height="13" transform="rotate(0,279.5,448.5)"/><rect x="286" y="78" width="13" height="13" transform="rotate(0,292.5,84.5)"/><rect x="286" y="143" width="13" height="13" transform="rotate(0,292.5,149.5)"/><rect x="286" y="156" width="13" height="13" transform="rotate(0,292.5,162.5)"/><rect x="286" y="208" width="13" height="13" transform="rotate(0,292.5,214.5)"/><rect x="286" y="221" width="13" height="13" transform="rotate(0,292.5,227.5)"/><rect x="286" y="234" width="13" height="13" transform="rotate(0,292.5,240.5)"/><rect x="286" y="247" width="13" height="13" transform="rotate(0,292.5,253.5)"/><rect x="286" y="260" width="13" height="13" transform="rotate(0,292.5,266.5)"/><rect x="286" y="273" width="13" height="13" transform="rotate(0,292.5,279.5)"/><rect x="286" y="286" width="13" height="13" transform="rotate(0,292.5,292.5)"/><rect x="286" y="338" width="13" height="13" transform="rotate(0,292.5,344.5)"/><rect x="286" y="403" width="13" height="13" transform="rotate(0,292.5,409.5)"/><rect x="286" y="416" width="13" height="13" transform="rotate(0,292.5,422.5)"/><rect x="299" y="78" width="13" height="13" transform="rotate(0,305.5,84.5)"/><rect x="299" y="91" width="13" height="13" transform="rotate(0,305.5,97.5)"/><rect x="299" y="104" width="13" height="13" transform="rotate(0,305.5,110.5)"/><rect x="299" y="117" width="13" height="13" transform="rotate(0,305.5,123.5)"/><rect x="299" y="143" width="13" height="13" transform="rotate(0,305.5,149.5)"/><rect x="299" y="169" width="13" height="13" transform="rotate(0,305.5,175.5)"/><rect x="299" y="182" width="13" height="13" transform="rotate(0,305.5,188.5)"/><rect x="299" y="208" width="13" height="13" transform="rotate(0,305.5,214.5)"/><rect x="299" y="234" width="13" height="13" transform="rotate(0,305.5,240.5)"/><rect x="299" y="247" width="13" height="13" transform="rotate(0,305.5,253.5)"/><rect x="299" y="260" width="13" height="13" transform="rotate(0,305.5,266.5)"/><rect x="299" y="299" width="13" height="13" transform="rotate(0,305.5,305.5)"/><rect x="299" y="312" width="13" height="13" transform="rotate(0,305.5,318.5)"/><rect x="299" y="325" width="13" height="13" transform="rotate(0,305.5,331.5)"/><rect x="299" y="377" width="13" height="13" transform="rotate(0,305.5,383.5)"/><rect x="299" y="390" width="13" height="13" transform="rotate(0,305.5,396.5)"/><rect x="299" y="416" width="13" height="13" transform="rotate(0,305.5,422.5)"/><rect x="299" y="442" width="13" height="13" transform="rotate(0,305.5,448.5)"/><rect x="312" y="78" width="13" height="13" transform="rotate(0,318.5,84.5)"/><rect x="312" y="91" width="13" height="13" transform="rotate(0,318.5,97.5)"/><rect x="312" y="117" width="13" height="13" transform="rotate(0,318.5,123.5)"/><rect x="312" y="130" width="13" height="13" transform="rotate(0,318.5,136.5)"/><rect x="312" y="143" width="13" height="13" transform="rotate(0,318.5,149.5)"/><rect x="312" y="156" width="13" height="13" transform="rotate(0,318.5,162.5)"/><rect x="312" y="195" width="13" height="13" transform="rotate(0,318.5,201.5)"/><rect x="312" y="221" width="13" height="13" transform="rotate(0,318.5,227.5)"/><rect x="312" y="273" width="13" height="13" transform="rotate(0,318.5,279.5)"/><rect x="312" y="325" width="13" height="13" transform="rotate(0,318.5,331.5)"/><rect x="312" y="390" width="13" height="13" transform="rotate(0,318.5,396.5)"/><rect x="312" y="416" width="13" height="13" transform="rotate(0,318.5,422.5)"/><rect x="312" y="442" width="13" height="13" transform="rotate(0,318.5,448.5)"/><rect x="325" y="78" width="13" height="13" transform="rotate(0,331.5,84.5)"/><rect x="325" y="143" width="13" height="13" transform="rotate(0,331.5,149.5)"/><rect x="325" y="195" width="13" height="13" transform="rotate(0,331.5,201.5)"/><rect x="325" y="221" width="13" height="13" transform="rotate(0,331.5,227.5)"/><rect x="325" y="247" width="13" height="13" transform="rotate(0,331.5,253.5)"/><rect x="325" y="260" width="13" height="13" transform="rotate(0,331.5,266.5)"/><rect x="325" y="312" width="13" height="13" transform="rotate(0,331.5,318.5)"/><rect x="325" y="351" width="13" height="13" transform="rotate(0,331.5,357.5)"/><rect x="325" y="364" width="13" height="13" transform="rotate(0,331.5,370.5)"/><rect x="325" y="403" width="13" height="13" transform="rotate(0,331.5,409.5)"/><rect x="325" y="442" width="13" height="13" transform="rotate(0,331.5,448.5)"/><rect x="338" y="78" width="13" height="13" transform="rotate(0,344.5,84.5)"/><rect x="338" y="117" width="13" height="13" transform="rotate(0,344.5,123.5)"/><rect x="338" y="130" width="13" height="13" transform="rotate(0,344.5,136.5)"/><rect x="338" y="156" width="13" height="13" transform="rotate(0,344.5,162.5)"/><rect x="338" y="169" width="13" height="13" transform="rotate(0,344.5,175.5)"/><rect x="338" y="195" width="13" height="13" transform="rotate(0,344.5,201.5)"/><rect x="338" y="221" width="13" height="13" transform="rotate(0,344.5,227.5)"/><rect x="338" y="234" width="13" height="13" transform="rotate(0,344.5,240.5)"/><rect x="338" y="260" width="13" height="13" transform="rotate(0,344.5,266.5)"/><rect x="338" y="273" width="13" height="13" transform="rotate(0,344.5,279.5)"/><rect x="338" y="299" width="13" height="13" transform="rotate(0,344.5,305.5)"/><rect x="338" y="325" width="13" height="13" transform="rotate(0,344.5,331.5)"/><rect x="338" y="338" width="13" height="13" transform="rotate(0,344.5,344.5)"/><rect x="338" y="351" width="13" height="13" transform="rotate(0,344.5,357.5)"/><rect x="338" y="364" width="13" height="13" transform="rotate(0,344.5,370.5)"/><rect x="338" y="377" width="13" height="13" transform="rotate(0,344.5,383.5)"/><rect x="338" y="390" width="13" height="13" transform="rotate(0,344.5,396.5)"/><rect x="338" y="429" width="13" height="13" transform="rotate(0,344.5,435.5)"/><rect x="338" y="442" width="13" height="13" transform="rotate(0,344.5,448.5)"/><rect x="351" y="182" width="13" height="13" transform="rotate(0,357.5,188.5)"/><rect x="351" y="195" width="13" height="13" transform="rotate(0,357.5,201.5)"/><rect x="351" y="208" width="13" height="13" transform="rotate(0,357.5,214.5)"/><rect x="351" y="221" width="13" height="13" transform="rotate(0,357.5,227.5)"/><rect x="351" y="247" width="13" height="13" transform="rotate(0,357.5,253.5)"/><rect x="351" y="273" width="13" height="13" transform="rotate(0,357.5,279.5)"/><rect x="351" y="286" width="13" height="13" transform="rotate(0,357.5,292.5)"/><rect x="351" y="312" width="13" height="13" transform="rotate(0,357.5,318.5)"/><rect x="351" y="325" width="13" height="13" transform="rotate(0,357.5,331.5)"/><rect x="351" y="338" width="13" height="13" transform="rotate(0,357.5,344.5)"/><rect x="351" y="390" width="13" height="13" transform="rotate(0,357.5,396.5)"/><rect x="351" y="403" width="13" height="13" transform="rotate(0,357.5,409.5)"/><rect x="351" y="416" width="13" height="13" transform="rotate(0,357.5,422.5)"/><rect x="351" y="429" width="13" height="13" transform="rotate(0,357.5,435.5)"/><rect x="351" y="442" width="13" height="13" transform="rotate(0,357.5,448.5)"/><rect x="364" y="182" width="13" height="13" transform="rotate(0,370.5,188.5)"/><rect x="364" y="208" width="13" height="13" transform="rotate(0,370.5,214.5)"/><rect x="364" y="247" width="13" height="13" transform="rotate(0,370.5,253.5)"/><rect x="364" y="273" width="13" height="13" transform="rotate(0,370.5,279.5)"/><rect x="364" y="286" width="13" height="13" transform="rotate(0,370.5,292.5)"/><rect x="364" y="312" width="13" height="13" transform="rotate(0,370.5,318.5)"/><rect x="364" y="325" width="13" height="13" transform="rotate(0,370.5,331.5)"/><rect x="364" y="338" width="13" height="13" transform="rotate(0,370.5,344.5)"/><rect x="364" y="364" width="13" height="13" transform="rotate(0,370.5,370.5)"/><rect x="364" y="390" width="13" height="13" transform="rotate(0,370.5,396.5)"/><rect x="377" y="221" width="13" height="13" transform="rotate(0,383.5,227.5)"/><rect x="377" y="234" width="13" height="13" transform="rotate(0,383.5,240.5)"/><rect x="377" y="247" width="13" height="13" transform="rotate(0,383.5,253.5)"/><rect x="377" y="260" width="13" height="13" transform="rotate(0,383.5,266.5)"/><rect x="377" y="273" width="13" height="13" transform="rotate(0,383.5,279.5)"/><rect x="377" y="286" width="13" height="13" transform="rotate(0,383.5,292.5)"/><rect x="377" y="325" width="13" height="13" transform="rotate(0,383.5,331.5)"/><rect x="377" y="338" width="13" height="13" transform="rotate(0,383.5,344.5)"/><rect x="377" y="390" width="13" height="13" transform="rotate(0,383.5,396.5)"/><rect x="377" y="403" width="13" height="13" transform="rotate(0,383.5,409.5)"/><rect x="377" y="429" width="13" height="13" transform="rotate(0,383.5,435.5)"/><rect x="377" y="442" width="13" height="13" transform="rotate(0,383.5,448.5)"/><rect x="390" y="195" width="13" height="13" transform="rotate(0,396.5,201.5)"/><rect x="390" y="208" width="13" height="13" transform="rotate(0,396.5,214.5)"/><rect x="390" y="234" width="13" height="13" transform="rotate(0,396.5,240.5)"/><rect x="390" y="286" width="13" height="13" transform="rotate(0,396.5,292.5)"/><rect x="390" y="299" width="13" height="13" transform="rotate(0,396.5,305.5)"/><rect x="390" y="312" width="13" height="13" transform="rotate(0,396.5,318.5)"/><rect x="390" y="325" width="13" height="13" transform="rotate(0,396.5,331.5)"/><rect x="390" y="338" width="13" height="13" transform="rotate(0,396.5,344.5)"/><rect x="390" y="351" width="13" height="13" transform="rotate(0,396.5,357.5)"/><rect x="390" y="364" width="13" height="13" transform="rotate(0,396.5,370.5)"/><rect x="390" y="377" width="13" height="13" transform="rotate(0,396.5,383.5)"/><rect x="390" y="390" width="13" height="13" transform="rotate(0,396.5,396.5)"/><rect x="403" y="221" width="13" height="13" transform="rotate(0,409.5,227.5)"/><rect x="403" y="247" width="13" height="13" transform="rotate(0,409.5,253.5)"/><rect x="403" y="286" width="13" height="13" transform="rotate(0,409.5,292.5)"/><rect x="403" y="299" width="13" height="13" transform="rotate(0,409.5,305.5)"/><rect x="403" y="325" width="13" height="13" transform="rotate(0,409.5,331.5)"/><rect x="403" y="338" width="13" height="13" transform="rotate(0,409.5,344.5)"/><rect x="403" y="377" width="13" height="13" transform="rotate(0,409.5,383.5)"/><rect x="403" y="416" width="13" height="13" transform="rotate(0,409.5,422.5)"/><rect x="403" y="429" width="13" height="13" transform="rotate(0,409.5,435.5)"/><rect x="416" y="208" width="13" height="13" transform="rotate(0,422.5,214.5)"/><rect x="416" y="247" width="13" height="13" transform="rotate(0,422.5,253.5)"/><rect x="416" y="260" width="13" height="13" transform="rotate(0,422.5,266.5)"/><rect x="416" y="312" width="13" height="13" transform="rotate(0,422.5,318.5)"/><rect x="416" y="325" width="13" height="13" transform="rotate(0,422.5,331.5)"/><rect x="416" y="338" width="13" height="13" transform="rotate(0,422.5,344.5)"/><rect x="416" y="351" width="13" height="13" transform="rotate(0,422.5,357.5)"/><rect x="416" y="364" width="13" height="13" transform="rotate(0,422.5,370.5)"/><rect x="416" y="377" width="13" height="13" transform="rotate(0,422.5,383.5)"/><rect x="416" y="390" width="13" height="13" transform="rotate(0,422.5,396.5)"/><rect x="416" y="416" width="13" height="13" transform="rotate(0,422.5,422.5)"/><rect x="416" y="429" width="13" height="13" transform="rotate(0,422.5,435.5)"/><rect x="429" y="182" width="13" height="13" transform="rotate(0,435.5,188.5)"/><rect x="429" y="234" width="13" height="13" transform="rotate(0,435.5,240.5)"/><rect x="429" y="273" width="13" height="13" transform="rotate(0,435.5,279.5)"/><rect x="429" y="338" width="13" height="13" transform="rotate(0,435.5,344.5)"/><rect x="429" y="351" width="13" height="13" transform="rotate(0,435.5,357.5)"/><rect x="429" y="364" width="13" height="13" transform="rotate(0,435.5,370.5)"/><rect x="429" y="390" width="13" height="13" transform="rotate(0,435.5,396.5)"/><rect x="429" y="403" width="13" height="13" transform="rotate(0,435.5,409.5)"/><rect x="429" y="416" width="13" height="13" transform="rotate(0,435.5,422.5)"/><rect x="429" y="442" width="13" height="13" transform="rotate(0,435.5,448.5)"/><rect x="442" y="221" width="13" height="13" transform="rotate(0,448.5,227.5)"/><rect x="442" y="247" width="13" height="13" transform="rotate(0,448.5,253.5)"/><rect x="442" y="299" width="13" height="13" transform="rotate(0,448.5,305.5)"/><rect x="442" y="325" width="13" height="13" transform="rotate(0,448.5,331.5)"/><rect x="442" y="390" width="13" height="13" transform="rotate(0,448.5,396.5)"/></clipPath><clipPath id="clip-path-corners-square-color-0-0"><rect x="78" y="78" width="13" height="13" transform="rotate(0,84.5,84.5)"/><rect x="78" y="91" width="13" height="13" transform="rotate(0,84.5,97.5)"/><rect x="78" y="104" width="13" height="13" transform="rotate(0,84.5,110.5)"/><rect x="78" y="117" width="13" height="13" transform="rotate(0,84.5,123.5)"/><rect x="78" y="130" width="13" height="13" transform="rotate(0,84.5,136.5)"/><rect x="78" y="143" width="13" height="13" transform="rotate(0,84.5,149.5)"/><rect x="78" y="156" width="13" height="13" transform="rotate(0,84.5,162.5)"/><rect x="91" y="78" width="13" height="13" transform="rotate(0,97.5,84.5)"/><rect x="91" y="156" width="13" height="13" transform="rotate(0,97.5,162.5)"/><rect x="104" y="78" width="13" height="13" transform="rotate(0,110.5,84.5)"/><rect x="104" y="156" width="13" height="13" transform="rotate(0,110.5,162.5)"/><rect x="117" y="78" width="13" height="13" transform="rotate(0,123.5,84.5)"/><rect x="117" y="156" width="13" height="13" transform="rotate(0,123.5,162.5)"/><rect x="130" y="78" width="13" height="13" transform="rotate(0,136.5,84.5)"/><rect x="130" y="156" width="13" height="13" transform="rotate(0,136.5,162.5)"/><rect x="143" y="78" width="13" height="13" transform="rotate(0,149.5,84.5)"/><rect x="143" y="156" width="13" height="13" transform="rotate(0,149.5,162.5)"/><rect x="156" y="78" width="13" height="13" transform="rotate(0,162.5,84.5)"/><rect x="156" y="91" width="13" height="13" transform="rotate(0,162.5,97.5)"/><rect x="156" y="104" width="13" height="13" transform="rotate(0,162.5,110.5)"/><rect x="156" y="117" width="13" height="13" transform="rotate(0,162.5,123.5)"/><rect x="156" y="130" width="13" height="13" transform="rotate(0,162.5,136.5)"/><rect x="156" y="143" width="13" height="13" transform="rotate(0,162.5,149.5)"/><rect x="156" y="156" width="13" height="13" transform="rotate(0,162.5,162.5)"/></clipPath><clipPath id="clip-path-corners-dot-color-0-0"><rect x="104" y="104" width="13" height="13" transform="rotate(0,110.5,110.5)"/><rect x="104" y="117" width="13" height="13" transform="rotate(0,110.5,123.5)"/><rect x="104" y="130" width="13" height="13" transform="rotate(0,110.5,136.5)"/><rect x="117" y="104" width="13" height="13" transform="rotate(0,123.5,110.5)"/><rect x="117" y="117" width="13" height="13" transform="rotate(0,123.5,123.5)"/><rect x="117" y="130" width="13" height="13" transform="rotate(0,123.5,136.5)"/><rect x="130" y="104" width="13" height="13" transform="rotate(0,136.5,110.5)"/><rect x="130" y="117" width="13" height="13" transform="rotate(0,136.5,123.5)"/><rect x="130" y="130" width="13" height="13" transform="rotate(0,136.5,136.5)"/></clipPath><clipPath id="clip-path-corners-square-color-1-0"><rect x="364" y="78" width="13" height="13" transform="rotate(0,370.5,84.5)"/><rect x="364" y="91" width="13" height="13" transform="rotate(0,370.5,97.5)"/><rect x="364" y="104" width="13" height="13" transform="rotate(0,370.5,110.5)"/><rect x="364" y="117" width="13" height="13" transform="rotate(0,370.5,123.5)"/><rect x="364" y="130" width="13" height="13" transform="rotate(0,370.5,136.5)"/><rect x="364" y="143" width="13" height="13" transform="rotate(0,370.5,149.5)"/><rect x="364" y="156" width="13" height="13" transform="rotate(0,370.5,162.5)"/><rect x="377" y="78" width="13" height="13" transform="rotate(0,383.5,84.5)"/><rect x="377" y="156" width="13" height="13" transform="rotate(0,383.5,162.5)"/><rect x="390" y="78" width="13" height="13" transform="rotate(0,396.5,84.5)"/><rect x="390" y="156" width="13" height="13" transform="rotate(0,396.5,162.5)"/><rect x="403" y="78" width="13" height="13" transform="rotate(0,409.5,84.5)"/><rect x="403" y="156" width="13" height="13" transform="rotate(0,409.5,162.5)"/><rect x="416" y="78" width="13" height="13" transform="rotate(0,422.5,84.5)"/><rect x="416" y="156" width="13" height="13" transform="rotate(0,422.5,162.5)"/><rect x="429" y="78" width="13" height="13" transform="rotate(0,435.5,84.5)"/><rect x="429" y="156" width="13" height="13" transform="rotate(0,435.5,162.5)"/><rect x="442" y="78" width="13" height="13" transform="rotate(0,448.5,84.5)"/><rect x="442" y="91" width="13" height="13" transform="rotate(0,448.5,97.5)"/><rect x="442" y="104" width="13" height="13" transform="rotate(0,448.5,110.5)"/><rect x="442" y="117" width="13" height="13" transform="rotate(0,448.5,123.5)"/><rect x="442" y="130" width="13" height="13" transform="rotate(0,448.5,136.5)"/><rect x="442" y="143" width="13" height="13" transform="rotate(0,448.5,149.5)"/><rect x="442" y="156" width="13" height="13" transform="rotate(0,448.5,162.5)"/></clipPath><clipPath id="clip-path-corners-dot-color-1-0"><rect x="390" y="104" width="13" height="13" transform="rotate(0,396.5,110.5)"/><rect x="390" y="117" width="13" height="13" transform="rotate(0,396.5,123.5)"/><rect x="390" y="130" width="13" height="13" transform="rotate(0,396.5,136.5)"/><rect x="403" y="104" width="13" height="13" transform="rotate(0,409.5,110.5)"/><rect x="403" y="117" width="13" height="13" transform="rotate(0,409.5,123.5)"/><rect x="403" y="130" width="13" height="13" transform="rotate(0,409.5,136.5)"/><rect x="416" y="104" width="13" height="13" transform="rotate(0,422.5,110.5)"/><rect x="416" y="117" width="13" height="13" transform="rotate(0,422.5,123.5)"/><rect x="416" y="130" width="13" height="13" transform="rotate(0,422.5,136.5)"/></clipPath><clipPath id="clip-path-corners-square-color-0-1"><rect x="78" y="364" width="13" height="13" transform="rotate(0,84.5,370.5)"/><rect x="78" y="377" width="13" height="13" transform="rotate(0,84.5,383.5)"/><rect x="78" y="390" width="13" height="13" transform="rotate(0,84.5,396.5)"/><rect x="78" y="403" width="13" height="13" transform="rotate(0,84.5,409.5)"/><rect x="78" y="416" width="13" height="13" transform="rotate(0,84.5,422.5)"/><rect x="78" y="429" width="13" height="13" transform="rotate(0,84.5,435.5)"/><rect x="78" y="442" width="13" height="13" transform="rotate(0,84.5,448.5)"/><rect x="91" y="364" width="13" height="13" transform="rotate(0,97.5,370.5)"/><rect x="91" y="442" width="13" height="13" transform="rotate(0,97.5,448.5)"/><rect x="104" y="364" width="13" height="13" transform="rotate(0,110.5,370.5)"/><rect x="104" y="442" width="13" height="13" transform="rotate(0,110.5,448.5)"/><rect x="117" y="364" width="13" height="13" transform="rotate(0,123.5,370.5)"/><rect x="117" y="442" width="13" height="13" transform="rotate(0,123.5,448.5)"/><rect x="130" y="364" width="13" height="13" transform="rotate(0,136.5,370.5)"/><rect x="130" y="442" width="13" height="13" transform="rotate(0,136.5,448.5)"/><rect x="143" y="364" width="13" height="13" transform="rotate(0,149.5,370.5)"/><rect x="143" y="442" width="13" height="13" transform="rotate(0,149.5,448.5)"/><rect x="156" y="364" width="13" height="13" transform="rotate(0,162.5,370.5)"/><rect x="156" y="377" width="13" height="13" transform="rotate(0,162.5,383.5)"/><rect x="156" y="390" width="13" height="13" transform="rotate(0,162.5,396.5)"/><rect x="156" y="403" width="13" height="13" transform="rotate(0,162.5,409.5)"/><rect x="156" y="416" width="13" height="13" transform="rotate(0,162.5,422.5)"/><rect x="156" y="429" width="13" height="13" transform="rotate(0,162.5,435.5)"/><rect x="156" y="442" width="13" height="13" transform="rotate(0,162.5,448.5)"/></clipPath><clipPath id="clip-path-corners-dot-color-0-1"><rect x="104" y="390" width="13" height="13" transform="rotate(0,110.5,396.5)"/><rect x="104" y="403" width="13" height="13" transform="rotate(0,110.5,409.5)"/><rect x="104" y="416" width="13" height="13" transform="rotate(0,110.5,422.5)"/><rect x="117" y="390" width="13" height="13" transform="rotate(0,123.5,396.5)"/><rect x="117" y="403" width="13" height="13" transform="rotate(0,123.5,409.5)"/><rect x="117" y="416" width="13" height="13" transform="rotate(0,123.5,422.5)"/><rect x="130" y="390" width="13" height="13" transform="rotate(0,136.5,396.5)"/><rect x="130" y="403" width="13" height="13" transform="rotate(0,136.5,409.5)"/><rect x="130" y="416" width="13" height="13" transform="rotate(0,136.5,422.5)"/></clipPath></defs><defs/><path fill="#595959" d="M846.16,749.44c-66.41,0-120.25,53.84-120.25,120.25s53.84,120.25,120.25,120.25 s120.25-53.84,120.25-120.25S912.57,749.44,846.16,749.44z M846.16,946.58c-42.46,0-76.88-34.42-76.88-76.88 c0-42.46,34.42-76.88,76.88-76.88s76.88,34.42,76.88,76.88C923.04,912.15,888.62,946.58,846.16,946.58z"/>
			<ellipse fill="#595959" transform="matrix(0.7071 -0.7071 0.7071 0.7071 -367.1294 853.0522)" cx="846.16" cy="869.69" rx="38.5" ry="38.5"/>
			<path fill="#595959" d="M338.81,749.44c-66.41,0-120.25,53.84-120.25,120.25s53.84,120.25,120.25,120.25 s120.25-53.84,120.25-120.25S405.23,749.44,338.81,749.44z M338.81,946.58c-42.46,0-76.88-34.42-76.88-76.88 c0-42.46,34.42-76.88,76.88-76.88s76.88,34.42,76.88,76.88C415.7,912.15,381.27,946.58,338.81,946.58z"/>
			<ellipse fill="#595959" transform="matrix(0.7071 -0.7071 0.7071 0.7071 -515.7283 494.3027)" cx="338.81" cy="869.69" rx="38.5" ry="38.5"/>
			<path fill="#000000" d="M1000,835.9c0-0.03,0-0.05,0-0.08c0-84.96-68.88-153.84-153.84-153.84s-153.84,68.88-153.84,153.84c0,0.03,0,0.05,0,0.08 H1000z"/>
			<path fill="#595959" d="M871.73,683.59l-103.67-218.7l12.65-2.85l-20.27-89.98c-2.93-13.02-15.86-21.19-28.88-18.26l-104.75,23.6 l18.91,83.92c3.69,16.37,19.95,26.65,36.31,22.96h0l35.33,213.86c2.78,16.84-2.73,33.98-14.79,46.05l-44.73,44.73 c-9.93,9.93-23.39,15.5-37.42,15.5h-73.36V670.42h31.4c6.81,0,12.33-5.52,12.33-12.33V610.6c0-6.81-5.52-12.33-12.33-12.33 H273.07c-6.81,0-12.33,5.52-12.33,12.33v27.58C184.09,669.1,130,744.18,130,831.9c0,5.35,0.2,10.66,0.6,15.91 c0.93,12.33,11.14,21.88,23.5,21.88h328.81h61.29h104.94c13.3,0,26.11-5.01,35.89-14.03l186.01-171.62l-0.12-0.16L871.73,683.59z "/>
			<path fill="#000000" d="M672.21,403.78l-91.07,20.52c-8.37,1.89-16.68-3.37-18.56-11.74l-0.99-4.4c-1.89-8.37,3.37-16.68,11.74-18.56 l91.07-20.52c8.37-1.89,16.68,3.37,18.56,11.74l0.99,4.4C685.83,393.59,680.58,401.9,672.21,403.78z"/>
			<path fill="#000000" d="M837.95,388.77c0-5.84-4.74-10.57-10.57-10.54c-8.38,0.03-18.86,0.25-20.93,0.25c-29.72,0-53.82,24.1-53.82,53.82 c0,29.72,24.1,53.82,53.82,53.82c2.07,0,12.55,0.22,20.93,0.25c5.84,0.02,10.57-4.71,10.57-10.54V388.77z"/>
			<path fill="#000000" d="M498.38,869.69c0-0.03,0-0.06,0-0.09c0-88.13-71.44-159.57-159.57-159.57S179.25,781.48,179.25,869.6 c0,0.03,0,0.06,0,0.09H498.38z"/>
			<path fill="#000000" d="M494.6,22.06c9.93,0,18,8.07,18,18v472.6H22V40.06c0-9.93,8.07-18,18-18H494.6 M494.6,0.06H40c-22.09,0-40,17.91-40,40 v494.6h534.6V40.06C534.6,17.97,516.69,0.06,494.6,0.06L494.6,0.06z"/>
			<path fill="#000000" d="M494.6,647.9H40c-22.09,0-40-17.91-40-40v-93.63h534.6v93.63C534.6,629.99,516.69,647.9,494.6,647.9z"/>
			<text fill="#ffffff" font-size="70" x="267" y="581" dominant-baseline="middle" text-anchor="middle" font-family="sans-serif"> </text><rect x="40" y="40" height="454" width="453" clip-path="url('#clip-path-background-color')" fill="#ffffff"/><rect x="78" y="78" height="377" width="377" clip-path="url('#clip-path-dot-color')" fill="#000000"/><rect x="78" y="78" height="91" width="91" clip-path="url('#clip-path-corners-square-color-0-0')" fill="#000000"/><rect x="104" y="104" height="39" width="39" clip-path="url('#clip-path-corners-dot-color-0-0')" fill="#000000"/><rect x="364" y="78" height="91" width="91" clip-path="url('#clip-path-corners-square-color-1-0')" fill="#000000"/><rect x="390" y="104" height="39" width="39" clip-path="url('#clip-path-corners-dot-color-1-0')" fill="#000000"/><rect x="78" y="364" height="91" width="91" clip-path="url('#clip-path-corners-square-color-0-1')" fill="#000000"/><rect x="104" y="390" height="39" width="39" clip-path="url('#clip-path-corners-dot-color-0-1')" fill="#000000"/></svg>